<?xml version="1.0" encoding="UTF-8"?>
<svg version="1.1" xmlns="http://www.w3.org/2000/svg" width="500" height="500">
<path d="M0 0 C5.28 0 10.56 0 16 0 C16 2.64 16 5.28 16 8 C23.92 8 31.84 8 40 8 C40 10.64 40 13.28 40 16 C42.64 16 45.28 16 48 16 C48 18.64 48 21.28 48 24 C55.59 24 63.18 24 71 24 C71 26.31 71 28.62 71 31 C72.175625 30.979375 73.35125 30.95875 74.5625 30.9375 C78.47413467 30.93052739 82.14497944 31.35749657 86 32 C86.86809439 37.20173095 87.12515348 42.16978816 87.0625 47.4375 C87.05798828 48.16904297 87.05347656 48.90058594 87.04882812 49.65429688 C87.03718148 51.43623419 87.01925191 53.21812863 87 55 C89.31 55 91.62 55 94 55 C94 59.95 94 64.9 94 70 C96.64 70 99.28 70 102 70 C102 95.74 102 121.48 102 148 C104.64 148.33 107.28 148.66 110 149 C110 151.31 110 153.62 110 156 C111.7015625 155.9690625 111.7015625 155.9690625 113.4375 155.9375 C117 156 117 156 118 157 C118.08713831 158.70772358 118.10700007 160.41898649 118.09765625 162.12890625 C118.09443359 163.16337891 118.09121094 164.19785156 118.08789062 165.26367188 C118.07951172 166.35228516 118.07113281 167.44089844 118.0625 168.5625 C118.05798828 169.65498047 118.05347656 170.74746094 118.04882812 171.87304688 C118.03699826 174.58208495 118.02051543 177.29101599 118 180 C115.69 180.33 113.38 180.66 111 181 C110.67 188.59 110.34 196.18 110 204 C107.36 204 104.72 204 102 204 C102 206.64 102 209.28 102 212 C97.05 212 92.1 212 87 212 C87 216.95 87 221.9 87 227 C84.36 227 81.72 227 79 227 C79 232.28 79 237.56 79 243 C76.36 243 73.72 243 71 243 C71 245.64 71 248.28 71 251 C68.36 251 65.72 251 63 251 C63 253.64 63 256.28 63 259 C60.36 259 57.72 259 55 259 C55 261.31 55 263.62 55 266 C52.69 266 50.38 266 48 266 C48 268.64 48 271.28 48 274 C45.36 274 42.72 274 40 274 C40 278.95 40 283.9 40 289 C41.38823975 288.99476318 42.77647949 288.98952637 44.20678711 288.98413086 C49.33731445 288.96608654 54.46783897 288.95457008 59.59838867 288.94506836 C61.82267732 288.94002683 64.04696263 288.93319377 66.27124023 288.92456055 C69.46078309 288.91248702 72.65028229 288.90677004 75.83984375 288.90234375 C77.34139259 288.89460182 77.34139259 288.89460182 78.87327576 288.88670349 C79.79415482 288.88662796 80.71503387 288.88655243 81.66381836 288.88647461 C82.47878281 288.884254 83.29374725 288.88203339 84.13340759 288.87974548 C86 289 86 289 87 290 C87.04092937 292.33297433 87.04241723 294.66705225 87 297 C89.31 297 91.62 297 94 297 C94.33 301.95 94.66 306.9 95 312 C99.95 312.33 104.9 312.66 110 313 C110 315.31 110 317.62 110 320 C111.7634375 319.9690625 111.7634375 319.9690625 113.5625 319.9375 C117.45179881 319.9375 121.1668674 320.29595524 125 321 C126 322 126 322 126.09765625 325.16015625 C126.08025391 327.09181641 126.08025391 327.09181641 126.0625 329.0625 C126.05347656 330.35285156 126.04445313 331.64320313 126.03515625 332.97265625 C126.01775391 334.47119141 126.01775391 334.47119141 126 336 C127.7015625 335.9690625 127.7015625 335.9690625 129.4375 335.9375 C133 336 133 336 134 337 C134.07313567 339.53049402 134.09247527 342.03304837 134.0625 344.5625 C134.05573242 345.62887695 134.05573242 345.62887695 134.04882812 346.71679688 C134.03700864 348.47790013 134.01907263 350.23896036 134 352 C136.31 352 138.62 352 141 352 C141 375.1 141 398.2 141 422 C143.64 422 146.28 422 149 422 C149 440.15 149 458.3 149 477 C58.58 477 -31.84 477 -125 477 C-125 474.36 -125 471.72 -125 469 C-122.36 469 -119.72 469 -117 469 C-117 445.9 -117 422.8 -117 399 C-114.69 398.67 -112.38 398.34 -110 398 C-109.67 380.18 -109.34 362.36 -109 344 C-106.69 344 -104.38 344 -102 344 C-101.67 338.72 -101.34 333.44 -101 328 C-98.69 328 -96.38 328 -94 328 C-94.0309375 326.2984375 -94.0309375 326.2984375 -94.0625 324.5625 C-94 321 -94 321 -93 320 C-90.46950598 319.92686433 -87.96695163 319.90752473 -85.4375 319.9375 C-84.37112305 319.94426758 -84.37112305 319.94426758 -83.28320312 319.95117188 C-81.52209987 319.96299136 -79.76103964 319.98092737 -78 320 C-78 317.69 -78 315.38 -78 313 C-75.36 313 -72.72 313 -70 313 C-70 307.72 -70 302.44 -70 297 C-67.36 297 -64.72 297 -62 297 C-62 294.36 -62 291.72 -62 289 C-46.49 289 -30.98 289 -15 289 C-15 287.02 -15 285.04 -15 283 C-13.68 282.67 -12.36 282.34 -11 282 C-10.814375 283.4540625 -10.814375 283.4540625 -10.625 284.9375 C-10.315625 286.4534375 -10.315625 286.4534375 -10 288 C-9.34 288.33 -8.68 288.66 -8 289 C-8 284.05 -8 279.1 -8 274 C-10.64 274 -13.28 274 -16 274 C-16 271.36 -16 268.72 -16 266 C-18.31 266 -20.62 266 -23 266 C-23 263.69 -23 261.38 -23 259 C-25.64 259 -28.28 259 -31 259 C-31 256.36 -31 253.72 -31 251 C-33.64 251 -36.28 251 -39 251 C-39 248.36 -39 245.72 -39 243 C-41.64 243 -44.28 243 -47 243 C-47 240.36 -47 237.72 -47 235 C-49.64 235 -52.28 235 -55 235 C-55 227.41 -55 219.82 -55 212 C-59.95 212 -64.9 212 -70 212 C-70 209.36 -70 206.72 -70 204 C-72.64 204 -75.28 204 -78 204 C-78 198.72 -78 193.44 -78 188 C-80.64 188 -83.28 188 -86 188 C-86.02465504 183.60343827 -86.04283842 179.2069128 -86.05493164 174.81030273 C-86.05997121 173.31355082 -86.06680287 171.81680384 -86.07543945 170.32006836 C-86.08752159 168.17300193 -86.09323191 166.02600038 -86.09765625 163.87890625 C-86.10289307 162.5854126 -86.10812988 161.29191895 -86.11352539 159.95922852 C-86 157 -86 157 -85 156 C-82.66702567 155.95907063 -80.33294775 155.95758277 -78 156 C-78 153.69 -78 151.38 -78 149 C-75.36 148.67 -72.72 148.34 -70 148 C-70 124.9 -70 101.8 -70 78 C-67.36 78 -64.72 78 -62 78 C-62.00523682 76.854104 -62.01047363 75.70820801 -62.01586914 74.52758789 C-62.03391717 70.29159318 -62.04543128 66.05560188 -62.05493164 61.81958008 C-62.05997231 59.98331125 -62.06680477 58.14704646 -62.07543945 56.31079102 C-62.08751672 53.67723599 -62.09323081 51.04373384 -62.09765625 48.41015625 C-62.10281754 47.58411392 -62.10797882 46.75807159 -62.11329651 45.90699768 C-62.11349205 43.93763632 -62.06204152 41.96838386 -62 40 C-61 39 -61 39 -57.9375 38.9375 C-56.968125 38.958125 -55.99875 38.97875 -55 39 C-55.020625 37.865625 -55.04125 36.73125 -55.0625 35.5625 C-55 32 -55 32 -54 31 C-51.46950598 30.92686433 -48.96695163 30.90752473 -46.4375 30.9375 C-45.37112305 30.94426758 -45.37112305 30.94426758 -44.28320312 30.95117188 C-42.52209987 30.96299136 -40.76103964 30.98092737 -39 31 C-39 28.69 -39 26.38 -39 24 C-34.05 23.67 -29.1 23.34 -24 23 C-23.67 20.69 -23.34 18.38 -23 16 C-20.69 16 -18.38 16 -16 16 C-16 13.36 -16 10.72 -16 8 C-10.72 8 -5.44 8 0 8 C0 5.36 0 2.72 0 0 Z " fill="#3D2136" transform="translate(234,23)"/>
<path d="M0 0 C5.28 0 10.56 0 16 0 C16 2.64 16 5.28 16 8 C23.92 8 31.84 8 40 8 C40 10.64 40 13.28 40 16 C42.64 16 45.28 16 48 16 C48 18.64 48 21.28 48 24 C55.59 24 63.18 24 71 24 C71 26.31 71 28.62 71 31 C72.175625 30.979375 73.35125 30.95875 74.5625 30.9375 C78.47413467 30.93052739 82.14497944 31.35749657 86 32 C86.86809439 37.20173095 87.12515348 42.16978816 87.0625 47.4375 C87.05798828 48.16904297 87.05347656 48.90058594 87.04882812 49.65429688 C87.03718148 51.43623419 87.01925191 53.21812863 87 55 C89.31 55 91.62 55 94 55 C94 59.95 94 64.9 94 70 C96.64 70 99.28 70 102 70 C102 95.74 102 121.48 102 148 C104.64 148.33 107.28 148.66 110 149 C110 151.31 110 153.62 110 156 C111.7015625 155.9690625 111.7015625 155.9690625 113.4375 155.9375 C117 156 117 156 118 157 C118.08713831 158.70772358 118.10700007 160.41898649 118.09765625 162.12890625 C118.09443359 163.16337891 118.09121094 164.19785156 118.08789062 165.26367188 C118.07951172 166.35228516 118.07113281 167.44089844 118.0625 168.5625 C118.05798828 169.65498047 118.05347656 170.74746094 118.04882812 171.87304688 C118.03699826 174.58208495 118.02051543 177.29101599 118 180 C115.69 180.33 113.38 180.66 111 181 C110.67 188.59 110.34 196.18 110 204 C107.36 204 104.72 204 102 204 C102 206.64 102 209.28 102 212 C97.05 212 92.1 212 87 212 C87 216.95 87 221.9 87 227 C84.36 227 81.72 227 79 227 C79 232.28 79 237.56 79 243 C76.36 243 73.72 243 71 243 C71 245.64 71 248.28 71 251 C68.36 251 65.72 251 63 251 C63 253.64 63 256.28 63 259 C60.36 259 57.72 259 55 259 C55 261.31 55 263.62 55 266 C52.69 266 50.38 266 48 266 C48 268.64 48 271.28 48 274 C40.08 274 32.16 274 24 274 C24 276.64 24 279.28 24 282 C16.08 282 8.16 282 0 282 C0 279.36 0 276.72 0 274 C-5.28 274 -10.56 274 -16 274 C-16 271.36 -16 268.72 -16 266 C-18.31 266 -20.62 266 -23 266 C-23 263.69 -23 261.38 -23 259 C-25.64 259 -28.28 259 -31 259 C-31 256.36 -31 253.72 -31 251 C-33.64 251 -36.28 251 -39 251 C-39 248.36 -39 245.72 -39 243 C-41.64 243 -44.28 243 -47 243 C-47 240.36 -47 237.72 -47 235 C-49.64 235 -52.28 235 -55 235 C-55 227.41 -55 219.82 -55 212 C-59.95 212 -64.9 212 -70 212 C-70 209.36 -70 206.72 -70 204 C-72.64 204 -75.28 204 -78 204 C-78 198.72 -78 193.44 -78 188 C-80.64 188 -83.28 188 -86 188 C-86.02465504 183.60343827 -86.04283842 179.2069128 -86.05493164 174.81030273 C-86.05997121 173.31355082 -86.06680287 171.81680384 -86.07543945 170.32006836 C-86.08752159 168.17300193 -86.09323191 166.02600038 -86.09765625 163.87890625 C-86.10289307 162.5854126 -86.10812988 161.29191895 -86.11352539 159.95922852 C-86 157 -86 157 -85 156 C-82.66702567 155.95907063 -80.33294775 155.95758277 -78 156 C-78 153.69 -78 151.38 -78 149 C-75.36 148.67 -72.72 148.34 -70 148 C-70 124.9 -70 101.8 -70 78 C-67.36 78 -64.72 78 -62 78 C-62.00785522 76.28115601 -62.00785522 76.28115601 -62.01586914 74.52758789 C-62.03391717 70.29159318 -62.04543128 66.05560188 -62.05493164 61.81958008 C-62.05997231 59.98331125 -62.06680477 58.14704646 -62.07543945 56.31079102 C-62.08751672 53.67723599 -62.09323081 51.04373384 -62.09765625 48.41015625 C-62.10281754 47.58411392 -62.10797882 46.75807159 -62.11329651 45.90699768 C-62.11349205 43.93763632 -62.06204152 41.96838386 -62 40 C-61 39 -61 39 -57.9375 38.9375 C-56.968125 38.958125 -55.99875 38.97875 -55 39 C-55.0309375 37.2984375 -55.0309375 37.2984375 -55.0625 35.5625 C-55 32 -55 32 -54 31 C-51.46950598 30.92686433 -48.96695163 30.90752473 -46.4375 30.9375 C-45.37112305 30.94426758 -45.37112305 30.94426758 -44.28320312 30.95117188 C-42.52209987 30.96299136 -40.76103964 30.98092737 -39 31 C-39 28.69 -39 26.38 -39 24 C-34.05 23.67 -29.1 23.34 -24 23 C-23.67 20.69 -23.34 18.38 -23 16 C-20.69 16 -18.38 16 -16 16 C-16 13.36 -16 10.72 -16 8 C-10.72 8 -5.44 8 0 8 C0 5.36 0 2.72 0 0 Z " fill="#1E0E1B" transform="translate(234,23)"/>
<path d="M0 0 C4.95 0 9.9 0 15 0 C15 2.64 15 5.28 15 8 C12.69 8 10.38 8 8 8 C8 10.31 8 12.62 8 15 C20.87 15 33.74 15 47 15 C47 12.69 47 10.38 47 8 C57.23 8 67.46 8 78 8 C78 10.31 78 12.62 78 15 C75.36 15 72.72 15 70 15 C70 17.64 70 20.28 70 23 C75.28 23 80.56 23 86 23 C86 25.64 86 28.28 86 31 C90.95 31 95.9 31 101 31 C101 41.23 101 51.46 101 62 C103.64 62 106.28 62 109 62 C109 72.23 109 82.46 109 93 C106.69 93 104.38 93 102 93 C102 98.28 102 103.56 102 109 C104.31 109 106.62 109 109 109 C109 104.05 109 99.1 109 94 C111.64 94 114.28 94 117 94 C117 88.72 117 83.44 117 78 C119.86177057 76.56911472 121.93375773 77.40008303 125 78 C125 80.31 125 82.62 125 85 C126.134375 84.979375 127.26875 84.95875 128.4375 84.9375 C132 85 132 85 133 86 C133.08713831 87.70772358 133.10700007 89.41898649 133.09765625 91.12890625 C133.09443359 92.16337891 133.09121094 93.19785156 133.08789062 94.26367188 C133.07951172 95.35228516 133.07113281 96.44089844 133.0625 97.5625 C133.05798828 98.65498047 133.05347656 99.74746094 133.04882812 100.87304688 C133.03699826 103.58208495 133.02051543 106.29101599 133 109 C129.535 109.495 129.535 109.495 126 110 C125.67 117.59 125.34 125.18 125 133 C122.36 133 119.72 133 117 133 C117 135.64 117 138.28 117 141 C111.72 141 106.44 141 101 141 C101 133.08 101 125.16 101 117 C96.05 117 91.1 117 86 117 C86 114.36 86 111.72 86 109 C73.13 109 60.26 109 47 109 C47 106.36 47 103.72 47 101 C36.44 101 25.88 101 15 101 C15 103.64 15 106.28 15 109 C2.13 109 -10.74 109 -24 109 C-24 111.64 -24 114.28 -24 117 C-28.95 117 -33.9 117 -39 117 C-39.33 109.41 -39.66 101.82 -40 94 C-42.31 93.67 -44.62 93.34 -47 93 C-47 82.77 -47 72.54 -47 62 C-44.36 62 -41.72 62 -39 62 C-39 46.49 -39 30.98 -39 15 C-33.72 15 -28.44 15 -23 15 C-23 17.64 -23 20.28 -23 23 C-20.69 23 -18.38 23 -16 23 C-16 20.36 -16 17.72 -16 15 C-13.36 15 -10.72 15 -8 15 C-8 12.36 -8 9.72 -8 7 C-5.36 7 -2.72 7 0 7 C0 4.69 0 2.38 0 0 Z " fill="#D49B7F" transform="translate(219,94)"/>
<path d="M0 0 C5.28 0 10.56 0 16 0 C16 2.64 16 5.28 16 8 C23.92 8 31.84 8 40 8 C40 10.64 40 13.28 40 16 C42.64 16 45.28 16 48 16 C48 18.64 48 21.28 48 24 C55.59 24 63.18 24 71 24 C71 26.31 71 28.62 71 31 C72.175625 30.979375 73.35125 30.95875 74.5625 30.9375 C78.47413467 30.93052739 82.14497944 31.35749657 86 32 C86.86809439 37.20173095 87.12515348 42.16978816 87.0625 47.4375 C87.05798828 48.16904297 87.05347656 48.90058594 87.04882812 49.65429688 C87.03718148 51.43623419 87.01925191 53.21812863 87 55 C89.31 55 91.62 55 94 55 C94 59.95 94 64.9 94 70 C96.64 70 99.28 70 102 70 C102.15493717 80.02388987 102.30309588 90.04785597 102.4429636 100.07196808 C102.50813801 104.72820971 102.5755137 109.38439633 102.64819336 114.04052734 C102.71844848 118.54681412 102.78256459 123.05315274 102.84269524 127.55958557 C102.86648738 129.26570218 102.89236967 130.97179116 102.92053413 132.67784119 C103.09767144 143.51189997 102.84929406 154.19365564 102 165 C99.36 165 96.72 165 94 165 C94 169.95 94 174.9 94 180 C91.69 180 89.38 180 87 180 C87 174.72 87 169.44 87 164 C89.31 164 91.62 164 94 164 C94 153.77 94 143.54 94 133 C91.36 133 88.72 133 86 133 C86 122.77 86 112.54 86 102 C81.05 102 76.1 102 71 102 C71 99.36 71 96.72 71 94 C65.72 94 60.44 94 55 94 C55 91.36 55 88.72 55 86 C57.64 86 60.28 86 63 86 C63 83.69 63 81.38 63 79 C52.77 79 42.54 79 32 79 C32 81.31 32 83.62 32 86 C19.13 86 6.26 86 -7 86 C-7 83.69 -7 81.38 -7 79 C-4.69 79 -2.38 79 0 79 C0 76.36 0 73.72 0 71 C-4.95 71 -9.9 71 -15 71 C-15 73.31 -15 75.62 -15 78 C-17.64 78 -20.28 78 -23 78 C-23 80.64 -23 83.28 -23 86 C-25.64 86 -28.28 86 -31 86 C-31 88.64 -31 91.28 -31 94 C-33.31 94 -35.62 94 -38 94 C-38 91.36 -38 88.72 -38 86 C-43.28 86 -48.56 86 -54 86 C-54 101.51 -54 117.02 -54 133 C-56.64 133 -59.28 133 -62 133 C-62 135.64 -62 138.28 -62 141 C-64.64 141 -67.28 141 -70 141 C-70 120.21 -70 99.42 -70 78 C-67.36 78 -64.72 78 -62 78 C-62.00523682 76.854104 -62.01047363 75.70820801 -62.01586914 74.52758789 C-62.03391717 70.29159318 -62.04543128 66.05560188 -62.05493164 61.81958008 C-62.05997231 59.98331125 -62.06680477 58.14704646 -62.07543945 56.31079102 C-62.08751672 53.67723599 -62.09323081 51.04373384 -62.09765625 48.41015625 C-62.10281754 47.58411392 -62.10797882 46.75807159 -62.11329651 45.90699768 C-62.11349205 43.93763632 -62.06204152 41.96838386 -62 40 C-61 39 -61 39 -57.9375 38.9375 C-56.968125 38.958125 -55.99875 38.97875 -55 39 C-55.020625 37.865625 -55.04125 36.73125 -55.0625 35.5625 C-55 32 -55 32 -54 31 C-51.46950598 30.92686433 -48.96695163 30.90752473 -46.4375 30.9375 C-45.72658203 30.94201172 -45.01566406 30.94652344 -44.28320312 30.95117188 C-42.52209987 30.96299136 -40.76103964 30.98092737 -39 31 C-39 28.69 -39 26.38 -39 24 C-34.05 23.67 -29.1 23.34 -24 23 C-23.67 20.69 -23.34 18.38 -23 16 C-20.69 16 -18.38 16 -16 16 C-16 13.36 -16 10.72 -16 8 C-10.72 8 -5.44 8 0 8 C0 5.36 0 2.72 0 0 Z " fill="#3D2036" transform="translate(234,23)"/>
<path d="M0 0 C2.64 0 5.28 0 8 0 C8 5.28 8 10.56 8 16 C10.64 16 13.28 16 16 16 C16 13.36 16 10.72 16 8 C20.95 8 25.9 8 31 8 C31 5.36 31 2.72 31 0 C36.28 0 41.56 0 47 0 C47 5.28 47 10.56 47 16 C49.31 16 51.62 16 54 16 C54.495 23.425 54.495 23.425 55 31 C57.31 31.33 59.62 31.66 62 32 C62 52.46 62 72.92 62 94 C57.38 94 52.76 94 48 94 C46.34920558 92.34920558 46.77450553 90.36263821 46.68359375 88.08984375 C46.64548584 87.199021 46.60737793 86.30819824 46.56811523 85.39038086 C46.50346069 83.68120483 46.50346069 83.68120483 46.4375 81.9375 C46.2209375 76.5234375 46.2209375 76.5234375 46 71 C31.15 70.505 31.15 70.505 16 70 C16 67.36 16 64.72 16 62 C13.36 62 10.72 62 8 62 C8 95.66 8 129.32 8 164 C-2.56 164 -13.12 164 -24 164 C-24.33 162.02 -24.66 160.04 -25 158 C-26.98 158 -28.96 158 -31 158 C-32.48679725 155.02640551 -32.11112605 152.33700821 -32.09765625 149.0234375 C-32.0962413 148.33819 -32.09482635 147.6529425 -32.09336853 146.94692993 C-32.08776675 144.75624239 -32.07521406 142.5656567 -32.0625 140.375 C-32.05748522 138.89062648 -32.05292228 137.40625135 -32.04882812 135.921875 C-32.03779677 132.28121685 -32.02053099 128.64061836 -32 125 C-34.31 125 -36.62 125 -39 125 C-39.309375 123.8553125 -39.309375 123.8553125 -39.625 122.6875 C-41.42070704 119.17770897 -43.43136312 118.47400219 -47 117 C-47 114.36 -47 111.72 -47 109 C-42.05 109 -37.1 109 -32 109 C-32 104.38 -32 99.76 -32 95 C-35.61328125 94.77213542 -39.2265625 94.54427083 -42.83984375 94.31640625 C-46 94 -46 94 -47 93 C-47.07320163 90.4672235 -47.09227569 87.96896082 -47.0625 85.4375 C-47.041875 82.983125 -47.02125 80.52875 -47 78 C-41.72 78 -36.44 78 -31 78 C-31 70.41 -31 62.82 -31 55 C-28.69 55 -26.38 55 -24 55 C-24 44.77 -24 34.54 -24 24 C-26.64 23.67 -29.28 23.34 -32 23 C-32 20.69 -32 18.38 -32 16 C-21.44 16 -10.88 16 0 16 C0 10.72 0 5.44 0 0 Z " fill="#184249" transform="translate(250,336)"/>
<path d="M0 0 C4.95 0 9.9 0 15 0 C15 2.64 15 5.28 15 8 C12.69 8 10.38 8 8 8 C8 10.31 8 12.62 8 15 C20.87 15 33.74 15 47 15 C47 15.33 47 15.66 47 16 C41.72 16 36.44 16 31 16 C31 18.31 31 20.62 31 23 C20.77 23 10.54 23 0 23 C0 28.28 0 33.56 0 39 C-2.64 39 -5.28 39 -8 39 C-8 43.95 -8 48.9 -8 54 C-0.41 54 7.18 54 15 54 C15 56.97 15 59.94 15 63 C13.54207031 63.01417969 12.08414063 63.02835938 10.58203125 63.04296875 C8.65882278 63.08987627 6.73564667 63.13812362 4.8125 63.1875 C3.85279297 63.19330078 2.89308594 63.19910156 1.90429688 63.20507812 C0.50727539 63.24858398 0.50727539 63.24858398 -0.91796875 63.29296875 C-1.77156982 63.3086792 -2.6251709 63.32438965 -3.50463867 63.34057617 C-6.83522244 63.99692112 -6.83522244 63.99692112 -11 69 C1.87 69.495 1.87 69.495 15 70 C15 72.64 15 75.28 15 78 C17.64 78 20.28 78 23 78 C23 80.64 23 83.28 23 86 C18.05 86 13.1 86 8 86 C8 88.64 8 91.28 8 94 C0.08 94 -7.84 94 -16 94 C-16 88.72 -16 83.44 -16 78 C-18.64 78 -21.28 78 -24 78 C-24 83.28 -24 88.56 -24 94 C-26.31 94 -28.62 94 -31 94 C-32 93 -32 93 -32.09765625 89.62109375 C-32.09098369 88.22652923 -32.07902532 86.83198257 -32.0625 85.4375 C-32.05798828 84.72658203 -32.05347656 84.01566406 -32.04882812 83.28320312 C-32.03700864 81.52209987 -32.01907263 79.76103964 -32 78 C-34.31 78 -36.62 78 -39 78 C-39 83.28 -39 88.56 -39 94 C-42.96 93.505 -42.96 93.505 -47 93 C-47 82.77 -47 72.54 -47 62 C-44.36 62 -41.72 62 -39 62 C-39 46.49 -39 30.98 -39 15 C-33.72 15 -28.44 15 -23 15 C-23 17.64 -23 20.28 -23 23 C-20.69 23 -18.38 23 -16 23 C-16 20.36 -16 17.72 -16 15 C-13.36 15 -10.72 15 -8 15 C-8 12.36 -8 9.72 -8 7 C-5.36 7 -2.72 7 0 7 C0 4.69 0 2.38 0 0 Z " fill="#D39B7F" transform="translate(219,94)"/>
<path d="M0 0 C0 7.92 0 15.84 0 24 C2.64 24 5.28 24 8 24 C8 28.95 8 33.9 8 39 C0.08 39 -7.84 39 -16 39 C-16 41.64 -16 44.28 -16 47 C-25.9 47 -35.8 47 -46 47 C-46 44.36 -46 41.72 -46 39 C-53.92 39 -61.84 39 -70 39 C-70 34.05 -70 29.1 -70 24 C-67.36 24 -64.72 24 -62 24 C-62 18.72 -62 13.44 -62 8 C-51.77 8 -41.54 8 -31 8 C-31 5.69 -31 3.38 -31 1 C-20.63648367 0.23737593 -10.39300617 -0.09993275 0 0 Z " fill="#D4E5CA" transform="translate(281,109)"/>
<path d="M0 0 C10.56 0 21.12 0 32 0 C32 2.64 32 5.28 32 8 C36.95 8 41.9 8 47 8 C47 10.31 47 12.62 47 15 C46 16 46 16 42.4375 16.0625 C41.303125 16.041875 40.16875 16.02125 39 16 C39 18.64 39 21.28 39 24 C41.64 24 44.28 24 47 24 C47 26.31 47 28.62 47 31 C44.36 31 41.72 31 39 31 C39 33.64 39 36.28 39 39 C34.05 39 29.1 39 24 39 C24.020625 41.26875 24.04125 43.5375 24.0625 45.875 C24.125 52.75 24.125 52.75 23 55 C20.69 55 18.38 55 16 55 C16 52.36 16 49.72 16 47 C13.36 47 10.72 47 8 47 C8 42.05 8 37.1 8 32 C3.10846529 32.0395679 3.10846529 32.0395679 -1.78295898 32.09008789 C-3.52221717 32.09724913 -5.26145304 32.05024702 -7 32 C-8 31 -8 31 -8.0625 27.4375 C-8.041875 26.303125 -8.02125 25.16875 -8 24 C-10.31 24 -12.62 24 -15 24 C-15 21.36 -15 18.72 -15 16 C-12.36 16 -9.72 16 -7 16 C-7.33 13.36 -7.66 10.72 -8 8 C-5.36 8 -2.72 8 0 8 C0 5.36 0 2.72 0 0 Z " fill="#3E2136" transform="translate(234,195)"/>
<path d="M0 0 C2.64 0 5.28 0 8 0 C8 2.64 8 5.28 8 8 C15.92 8 23.84 8 32 8 C32 5.36 32 2.72 32 0 C37.28 0 42.56 0 48 0 C48 4.95 48 9.9 48 15 C50.31 15 52.62 15 55 15 C55 17.64 55 20.28 55 23 C52.36 23 49.72 23 47 23 C47 25.64 47 28.28 47 31 C31.82 31 16.64 31 1 31 C1 28.36 1 25.72 1 23 C-1.64 23 -4.28 23 -7 23 C-7 18.38 -7 13.76 -7 9 C-5.68 8.67 -4.36 8.34 -3 8 C-2.87625 8.969375 -2.7525 9.93875 -2.625 10.9375 C-2.315625 12.4534375 -2.315625 12.4534375 -2 14 C-1.34 14.33 -0.68 14.66 0 15 C0 10.05 0 5.1 0 0 Z " fill="#996249" transform="translate(226,297)"/>
<path d="M0 0 C0 7.92 0 15.84 0 24 C2.64 24 5.28 24 8 24 C8 31.92 8 39.84 8 48 C10.64 48 13.28 48 16 48 C16.02685095 50.47923801 16.04676547 52.9581884 16.0625 55.4375 C16.07087891 56.14455078 16.07925781 56.85160156 16.08789062 57.58007812 C16.09653588 59.38693559 16.05220011 61.19387603 16 63 C15 64 15 64 11.62109375 64.09765625 C10.22652923 64.09098369 8.83198257 64.07902532 7.4375 64.0625 C6.72658203 64.05798828 6.01566406 64.05347656 5.28320312 64.04882812 C3.52209987 64.03700864 1.76103964 64.01907263 0 64 C0 61.36 0 58.72 0 56 C-2.64 56 -5.28 56 -8 56 C-8 50.72 -8 45.44 -8 40 C-10.64 40 -13.28 40 -16 40 C-16.02465504 35.60343827 -16.04283842 31.2069128 -16.05493164 26.81030273 C-16.05997121 25.31355082 -16.06680287 23.81680384 -16.07543945 22.32006836 C-16.08752159 20.17300193 -16.09323191 18.02600038 -16.09765625 15.87890625 C-16.10289307 14.5854126 -16.10812988 13.29191895 -16.11352539 11.95922852 C-16 9 -16 9 -15 8 C-12.66702567 7.95907063 -10.33294775 7.95758277 -8 8 C-8 5.69 -8 3.38 -8 1 C-2.25 0 -2.25 0 0 0 Z " fill="#D79A7E" transform="translate(164,171)"/>
<path d="M0 0 C2.64 0 5.28 0 8 0 C8 43.89 8 87.78 8 133 C5.36 133 2.72 133 0 133 C0 89.11 0 45.22 0 0 Z " fill="#564561" transform="translate(250,367)"/>
<path d="M0 0 C2.31 0 4.62 0 7 0 C7.33 4.95 7.66 9.9 8 15 C10.31 15.33 12.62 15.66 15 16 C15 10.72 15 5.44 15 0 C17.64 0 20.28 0 23 0 C23 5.28 23 10.56 23 16 C30.59 16 38.18 16 46 16 C45.67 16.66 45.34 17.32 45 18 C40.05 18 35.1 18 30 18 C29.67 18.66 29.34 19.32 29 20 C29.66 20 30.32 20 31 20 C31 20.66 31 21.32 31 22 C33.97 22 36.94 22 40 22 C40.2475 22.928125 40.495 23.85625 40.75 24.8125 C41.84772808 28.43342735 41.84772808 28.43342735 46 31 C35.77 31 25.54 31 15 31 C15 33.64 15 36.28 15 39 C10.05 39 5.1 39 0 39 C0 26.13 0 13.26 0 0 Z " fill="#D69D81" transform="translate(180,172)"/>
<path d="M0 0 C2.33944736 0.28730055 4.6739143 0.61936779 7 1 C7 3.31 7 5.62 7 8 C8.134375 7.979375 9.26875 7.95875 10.4375 7.9375 C14 8 14 8 15 9 C15.08713831 10.70772358 15.10700007 12.41898649 15.09765625 14.12890625 C15.09443359 15.16337891 15.09121094 16.19785156 15.08789062 17.26367188 C15.07951172 18.35228516 15.07113281 19.44089844 15.0625 20.5625 C15.05798828 21.65498047 15.05347656 22.74746094 15.04882812 23.87304688 C15.03699826 26.58208495 15.02051543 29.29101599 15 32 C11.535 32.495 11.535 32.495 8 33 C7.67 37.95 7.34 42.9 7 48 C4.36 48 1.72 48 -1 48 C-1 50.31 -1 52.62 -1 55 C-3.64 55 -6.28 55 -9 55 C-9 42.46 -9 29.92 -9 17 C-6.36 17 -3.72 17 -1 17 C-1.01160156 15.85660156 -1.02320313 14.71320313 -1.03515625 13.53515625 C-1.04453288 12.04427246 -1.05363321 10.55338691 -1.0625 9.0625 C-1.07087891 8.30775391 -1.07925781 7.55300781 -1.08789062 6.77539062 C-1.09652441 4.85005687 -1.05224333 2.92464419 -1 1 C-0.67 0.67 -0.34 0.34 0 0 Z " fill="#D49B7E" transform="translate(337,171)"/>
<path d="M0 0 C10.23 0 20.46 0 31 0 C31 2.64 31 5.28 31 8 C33.64 8 36.28 8 39 8 C39 10.64 39 13.28 39 16 C34.05 16 29.1 16 24 16 C24 18.64 24 21.28 24 24 C16.08 24 8.16 24 0 24 C0 16.08 0 8.16 0 0 Z " fill="#5F4A5F" transform="translate(203,164)"/>
<path d="M0 0 C2.64 0 5.28 0 8 0 C8 10.23 8 20.46 8 31 C5.69 31 3.38 31 1 31 C1 36.28 1 41.56 1 47 C3.31 47 5.62 47 8 47 C8 54.59 8 62.18 8 70 C10.64 70 13.28 70 16 70 C16 67.69 16 65.38 16 63 C18.64 63 21.28 63 24 63 C24 65.64 24 68.28 24 71 C21.36 71 18.72 71 16 71 C16 73.64 16 76.28 16 79 C10.72 79 5.44 79 0 79 C0 71.08 0 63.16 0 55 C-2.64 55 -5.28 55 -8 55 C-8 52.36 -8 49.72 -8 47 C-5.36 47 -2.72 47 0 47 C0 31.49 0 15.98 0 0 Z " fill="#5B4150" transform="translate(320,156)"/>
<path d="M0 0 C5.28 0 10.56 0 16 0 C16 7.92 16 15.84 16 24 C8.41 24 0.82 24 -7 24 C-7 18.39 -7 12.78 -7 7 C-4.69 7 -2.38 7 0 7 C0 4.69 0 2.38 0 0 Z " fill="#17434A" transform="translate(265,437)"/>
<path d="M0 0 C2.64 0 5.28 0 8 0 C8 7.92 8 15.84 8 24 C10.64 24 13.28 24 16 24 C16.02685095 26.47923801 16.04676547 28.9581884 16.0625 31.4375 C16.07087891 32.14455078 16.07925781 32.85160156 16.08789062 33.58007812 C16.09653588 35.38693559 16.05220011 37.19387603 16 39 C15 40 15 40 11.62109375 40.09765625 C10.22652923 40.09098369 8.83198257 40.07902532 7.4375 40.0625 C6.72658203 40.05798828 6.01566406 40.05347656 5.28320312 40.04882812 C3.52209987 40.03700864 1.76103964 40.01907263 0 40 C0 37.36 0 34.72 0 32 C-2.64 32 -5.28 32 -8 32 C-8 29.36 -8 26.72 -8 24 C-5.36 24 -2.72 24 0 24 C0.144375 23.21625 0.28875 22.4325 0.4375 21.625 C1 19 1 19 2 17 C1.34 16.67 0.68 16.34 0 16 C0 10.72 0 5.44 0 0 Z " fill="#D3997E" transform="translate(164,195)"/>
<path d="M0 0 C2.64 0 5.28 0 8 0 C8 7.59 8 15.18 8 23 C10.31 23 12.62 23 15 23 C16 24 16 24 16.11352539 26.95922852 C16.10828857 28.25272217 16.10305176 29.54621582 16.09765625 30.87890625 C16.0962413 31.5655687 16.09482635 32.25223114 16.09336853 32.95970154 C16.08775479 35.16067801 16.07520007 37.36155409 16.0625 39.5625 C16.05748676 41.05143083 16.05292355 42.54036324 16.04882812 44.02929688 C16.03778093 47.68623075 16.02050713 51.34310558 16 55 C13.36 55 10.72 55 8 55 C8 47.08 8 39.16 8 31 C5.36 31 2.72 31 0 31 C0 20.77 0 10.54 0 0 Z " fill="#4A2935" transform="translate(164,164)"/>
<path d="M0 0 C2.64 0 5.28 0 8 0 C8 20.46 8 40.92 8 62 C5.36 62 2.72 62 0 62 C0 41.54 0 21.08 0 0 Z " fill="#200E1D" transform="translate(148,438)"/>
<path d="M0 0 C5.28 0 10.56 0 16 0 C16 4.95 16 9.9 16 15 C18.31 15 20.62 15 23 15 C23 17.64 23 20.28 23 23 C20.36 23 17.72 23 15 23 C15 25.64 15 28.28 15 31 C12.36 31 9.72 31 7 31 C7 28.36 7 25.72 7 23 C4.69 23 2.38 23 0 23 C0 15.41 0 7.82 0 0 Z " fill="#976149" transform="translate(258,297)"/>
<path d="M0 0 C7.92 0 15.84 0 24 0 C24 2.64 24 5.28 24 8 C18.72 8 13.44 8 8 8 C8 10.64 8 13.28 8 16 C10.64 16 13.28 16 16 16 C16 18.31 16 20.62 16 23 C11.05 23 6.1 23 1 23 C1 20.69 1 18.38 1 16 C-4.28 16 -9.56 16 -15 16 C-15 13.36 -15 10.72 -15 8 C-10.05 8 -5.1 8 0 8 C0 5.36 0 2.72 0 0 Z " fill="#3E2238" transform="translate(273,164)"/>
<path d="M0 0 C5.28 0 10.56 0 16 0 C16 4.95 16 9.9 16 15 C18.31 15 20.62 15 23 15 C23 17.64 23 20.28 23 23 C15.41 23 7.82 23 0 23 C0 15.41 0 7.82 0 0 Z " fill="#D59B7F" transform="translate(242,305)"/>
<path d="M0 0 C1.02577148 0.07831055 1.02577148 0.07831055 2.07226562 0.15820312 C3.73621169 0.28619898 5.3994473 0.42337719 7.0625 0.5625 C7.0625 1.8825 7.0625 3.2025 7.0625 4.5625 C6.4025 4.8925 5.7425 5.2225 5.0625 5.5625 C8.3625 5.8925 11.6625 6.2225 15.0625 6.5625 C15.0625 9.2025 15.0625 11.8425 15.0625 14.5625 C4.8325 14.5625 -5.3975 14.5625 -15.9375 14.5625 C-15.9375 11.9225 -15.9375 9.2825 -15.9375 6.5625 C-26.8275 6.5625 -37.7175 6.5625 -48.9375 6.5625 C-48.9375 6.2325 -48.9375 5.9025 -48.9375 5.5625 C-38.3775 5.2325 -27.8175 4.9025 -16.9375 4.5625 C-16.2775 3.2425 -15.6175 1.9225 -14.9375 0.5625 C-9.89780023 -0.68956024 -5.144024 -0.40970103 0 0 Z " fill="#D69D82" transform="translate(281.9375,188.4375)"/>
<path d="M0 0 C15.51 0 31.02 0 47 0 C47 2.64 47 5.28 47 8 C31.49 8 15.98 8 0 8 C0 5.36 0 2.72 0 0 Z " fill="#674E61" transform="translate(266,148)"/>
<path d="M0 0 C2.64 0 5.28 0 8 0 C8.93363823 10.80147619 8.93363823 21.19852381 8 32 C5.36 32 2.72 32 0 32 C0 36.95 0 41.9 0 47 C-2.31 47 -4.62 47 -7 47 C-7 41.72 -7 36.44 -7 31 C-4.69 31 -2.38 31 0 31 C0 20.77 0 10.54 0 0 Z " fill="#402334" transform="translate(328,156)"/>
<path d="M0 0 C5.61 0 11.22 0 17 0 C17 2.64 17 5.28 17 8 C19.64 8 22.28 8 25 8 C25 10.64 25 13.28 25 16 C16.75 16 8.5 16 0 16 C0 10.72 0 5.44 0 0 Z " fill="#174349" transform="translate(288,484)"/>
<path d="M0 0 C0 2.97 0 5.94 0 9 C-2.64 9 -5.28 9 -8 9 C-8 11.31 -8 13.62 -8 16 C-13.28 16 -18.56 16 -24 16 C-24 10.72 -24 5.44 -24 0 C-8.14285714 -1.28571429 -8.14285714 -1.28571429 0 0 Z " fill="#194249" transform="translate(344,359)"/>
<path d="M0 0 C2.64 0 5.28 0 8 0 C8 4.95 8 9.9 8 15 C10.64 15 13.28 15 16 15 C16 12.69 16 10.38 16 8 C18.64 8 21.28 8 24 8 C24 10.64 24 13.28 24 16 C21.36 16 18.72 16 16 16 C16 18.64 16 21.28 16 24 C10.72 24 5.44 24 0 24 C0 16.08 0 8.16 0 0 Z " fill="#C56A6D" transform="translate(320,211)"/>
<path d="M0 0 C2.64 0 5.28 0 8 0 C8 2.64 8 5.28 8 8 C10.31 8 12.62 8 15 8 C15 10.64 15 13.28 15 16 C12.69 16 10.38 16 8 16 C8 21.28 8 26.56 8 32 C5.36 31.67 2.72 31.34 0 31 C0 20.77 0 10.54 0 0 Z " fill="#996147" transform="translate(172,156)"/>
<path d="M0 0 C5.28 0 10.56 0 16 0 C16.125 12.75 16.125 12.75 15 15 C7.74 15 0.48 15 -7 15 C-7 12.69 -7 10.38 -7 8 C-4.69 8 -2.38 8 0 8 C0 5.36 0 2.72 0 0 Z " fill="#3F2236" transform="translate(289,203)"/>
<path d="M0 0 C4.95 0 9.9 0 15 0 C15 2.31 15 4.62 15 7 C12.69 7.33 10.38 7.66 8 8 C7.67 15.26 7.34 22.52 7 30 C4.69 30 2.38 30 0 30 C0 20.1 0 10.2 0 0 Z " fill="#3A2137" transform="translate(258,360)"/>
<path d="M0 0 C5.28 0 10.56 0 16 0 C16 5.28 16 10.56 16 16 C10.72 16 5.44 16 0 16 C0 10.72 0 5.44 0 0 Z " fill="#1A4048" transform="translate(266,484)"/>
<path d="M0 0 C3.6815625 -0.0309375 3.6815625 -0.0309375 7.4375 -0.0625 C8.21150146 -0.071604 8.98550293 -0.08070801 9.78295898 -0.09008789 C11.52221717 -0.09724913 13.26145304 -0.05024702 15 0 C16.87725894 1.87725894 16.21702304 4.92850307 16.25 7.4375 C16.27578125 8.61183594 16.3015625 9.78617187 16.328125 10.99609375 C16.21984375 11.98738281 16.1115625 12.97867187 16 14 C11.0754853 17.2830098 5.82305673 16.11530805 0 16 C0 10.72 0 5.44 0 0 Z " fill="#3E2037" transform="translate(281,375)"/>
<path d="M0 0 C2.64 0 5.28 0 8 0 C8 10.23 8 20.46 8 31 C5.36 31 2.72 31 0 31 C0 20.77 0 10.54 0 0 Z " fill="#3F2133" transform="translate(164,164)"/>
<path d="M0 0 C10.23 0 20.46 0 31 0 C31 2.64 31 5.28 31 8 C20.77 8 10.54 8 0 8 C0 5.36 0 2.72 0 0 Z " fill="#3A1E31" transform="translate(203,148)"/>
<path d="M0 0 C4.95 0 9.9 0 15 0 C15 2.64 15 5.28 15 8 C17.64 8 20.28 8 23 8 C23 10.64 23 13.28 23 16 C18.05 16 13.1 16 8 16 C8 13.36 8 10.72 8 8 C5.36 8 2.72 8 0 8 C0 5.36 0 2.72 0 0 Z " fill="#9A6146" transform="translate(219,164)"/>
<path d="M0 0 C7.92 0 15.84 0 24 0 C24 2.64 24 5.28 24 8 C18.72 8 13.44 8 8 8 C8 10.31 8 12.62 8 15 C7.67 15 7.34 15 7 15 C6.67 13.02 6.34 11.04 6 9 C2.7 9.66 -0.6 10.32 -4 11 C-4 11.66 -4 12.32 -4 13 C-2.68 13 -1.36 13 0 13 C0 13.66 0 14.32 0 15 C-2.31 15 -4.62 15 -7 15 C-7 12.69 -7 10.38 -7 8 C-4.69 8 -2.38 8 0 8 C0 5.36 0 2.72 0 0 Z " fill="#3A2133" transform="translate(273,164)"/>
<path d="M0 0 C2.64 0 5.28 0 8 0 C8 0.66 8 1.32 8 2 C5.69 2 3.38 2 1 2 C1 3.98 1 5.96 1 8 C5.62 8 10.24 8 15 8 C15 10.64 15 13.28 15 16 C12.69 16 10.38 16 8 16 C8 18.64 8 21.28 8 24 C5.36 24 2.72 24 0 24 C0 16.08 0 8.16 0 0 Z " fill="#200F1C" transform="translate(164,101)"/>
<path d="M0 0 C2.64 0 5.28 0 8 0 C8 2.64 8 5.28 8 8 C10.64 8 13.28 8 16 8 C16 10.64 16 13.28 16 16 C10.72 16 5.44 16 0 16 C0 10.72 0 5.44 0 0 Z " fill="#3C2035" transform="translate(195,203)"/>
<path d="M0 0 C2.64 0 5.28 0 8 0 C8 7.92 8 15.84 8 24 C5.36 24 2.72 24 0 24 C0 16.08 0 8.16 0 0 Z " fill="#99644C" transform="translate(320,156)"/>
<path d="M0 0 C5.28 0 10.56 0 16 0 C16 2.64 16 5.28 16 8 C13.36 8 10.72 8 8 8 C8 10.64 8 13.28 8 16 C5.36 16 2.72 16 0 16 C0 10.72 0 5.44 0 0 Z " fill="#1F101E" transform="translate(172,70)"/>
<path d="M0 0 C2.31 0 4.62 0 7 0 C8 1 8 1 8.11352539 3.22485352 C8.10828857 4.18319092 8.10305176 5.14152832 8.09765625 6.12890625 C8.09443359 7.16337891 8.09121094 8.19785156 8.08789062 9.26367188 C8.07951172 10.35228516 8.07113281 11.44089844 8.0625 12.5625 C8.05798828 13.65498047 8.05347656 14.74746094 8.04882812 15.87304688 C8.03699826 18.58208495 8.02051543 21.29101599 8 24 C5.36 24 2.72 24 0 24 C0 16.08 0 8.16 0 0 Z " fill="#1E0F1D" transform="translate(125,375)"/>
<path d="M0 0 C3.3 0 6.6 0 10 0 C10 2.97 10 5.94 10 9 C7.69 9.66 5.38 10.32 3 11 C2.67 13.31 2.34 15.62 2 18 C-0.31 18 -2.62 18 -5 18 C-4.99476318 18.63091553 -4.98952637 19.26183105 -4.98413086 19.91186523 C-4.96342174 22.75373347 -4.95035934 25.59558588 -4.9375 28.4375 C-4.92912109 29.43072266 -4.92074219 30.42394531 -4.91210938 31.44726562 C-4.90888672 32.39150391 -4.90566406 33.33574219 -4.90234375 34.30859375 C-4.89710693 35.18314209 -4.89187012 36.05769043 -4.88647461 36.95874023 C-5 39 -5 39 -6 40 C-8.67058851 40.14115161 -11.32432238 40.04247107 -14 40 C-14 39.67 -14 39.34 -14 39 C-11.69 39 -9.38 39 -7 39 C-7.00523682 38.3387915 -7.01047363 37.67758301 -7.01586914 36.99633789 C-7.03657656 34.01840149 -7.04964012 31.04048018 -7.0625 28.0625 C-7.07087891 27.02158203 -7.07925781 25.98066406 -7.08789062 24.90820312 C-7.09111328 23.91884766 -7.09433594 22.92949219 -7.09765625 21.91015625 C-7.10289307 20.99371338 -7.10812988 20.07727051 -7.11352539 19.13305664 C-7 17 -7 17 -6 16 C-3.66702567 15.95907063 -1.33294775 15.95758277 1 16 C1 13.69 1 11.38 1 9 C-3.95 9 -8.9 9 -14 9 C-14 8.67 -14 8.34 -14 8 C-9.38 8 -4.76 8 0 8 C0 5.36 0 2.72 0 0 Z " fill="#263642" transform="translate(272,351)"/>
<path d="M0 0 C2.64 0 5.28 0 8 0 C8 2.64 8 5.28 8 8 C5.69 8 3.38 8 1 8 C1 10.31 1 12.62 1 15 C8.26 15 15.52 15 23 15 C23.33 14.34 23.66 13.68 24 13 C24 13.99 24 14.98 24 16 C16.41 16 8.82 16 1 16 C1 18.64 1 21.28 1 24 C-1.64 24 -4.28 24 -7 24 C-7 26.31 -7 28.62 -7 31 C-7.33 31 -7.66 31 -8 31 C-8 28.36 -8 25.72 -8 23 C-5.36 23 -2.72 23 0 23 C0 20.69 0 18.38 0 16 C-2.64 16 -5.28 16 -8 16 C-8 13.36 -8 10.72 -8 8 C-4.535 7.505 -4.535 7.505 -1 7 C-0.67 4.69 -0.34 2.38 0 0 Z " fill="#30192B" transform="translate(281,203)"/>
<path d="M0 0 C1.134375 0.020625 2.26875 0.04125 3.4375 0.0625 C3.4375 0.7225 3.4375 1.3825 3.4375 2.0625 C1.1275 2.0625 -1.1825 2.0625 -3.5625 2.0625 C-3.2325 5.3625 -2.9025 8.6625 -2.5625 12.0625 C-0.9125 11.7325 0.7375 11.4025 2.4375 11.0625 C2.540625 11.990625 2.64375 12.91875 2.75 13.875 C3.4445192 17.09504358 3.91490939 18.08829865 6.4375 20.0625 C5.7775 20.7225 5.1175 21.3825 4.4375 22.0625 C3.97587573 24.49502661 3.97587573 24.49502661 3.8125 27.1875 C3.73773438 28.09757812 3.66296875 29.00765625 3.5859375 29.9453125 C3.53695312 30.64398438 3.48796875 31.34265625 3.4375 32.0625 C0.7975 32.0625 -1.8425 32.0625 -4.5625 32.0625 C-4.58715504 27.66593827 -4.60533842 23.2694128 -4.61743164 18.87280273 C-4.62247121 17.37605082 -4.62930287 15.87930384 -4.63793945 14.38256836 C-4.65002159 12.23550193 -4.65573191 10.08850038 -4.66015625 7.94140625 C-4.66539307 6.6479126 -4.67062988 5.35441895 -4.67602539 4.02172852 C-4.51089962 -0.28254994 -4.41826494 0.07751342 0 0 Z " fill="#CF9A7D" transform="translate(152.5625,178.9375)"/>
<path d="M0 0 C5.28 0 10.56 0 16 0 C16 4.95 16 9.9 16 15 C13.36 15 10.72 15 8 15 C8 12.69 8 10.38 8 8 C5.36 8 2.72 8 0 8 C0 5.36 0 2.72 0 0 Z " fill="#58485E" transform="translate(281,172)"/>
<path d="M0 0 C2.64 0 5.28 0 8 0 C8 5.28 8 10.56 8 16 C3.38 16 -1.24 16 -6 16 C-6.33 14.35 -6.66 12.7 -7 11 C-6.34 10.01 -5.68 9.02 -5 8 C-2.375 7.8125 -2.375 7.8125 0 8 C0 5.36 0 2.72 0 0 Z " fill="#3A2338" transform="translate(242,468)"/>
<path d="M0 0 C2.64 0 5.28 0 8 0 C8.09289153 5.29481709 7.76541303 9.64210878 7 15 C2.05 15 -2.9 15 -8 15 C-8 12.69 -8 10.38 -8 8 C-5.36 8 -2.72 8 0 8 C0 5.36 0 2.72 0 0 Z " fill="#3C1F33" transform="translate(219,172)"/>
<path d="M0 0 C7.59 0 15.18 0 23 0 C23 2.31 23 4.62 23 7 C15.41 7 7.82 7 0 7 C0 4.69 0 2.38 0 0 Z " fill="#3A1E31" transform="translate(266,149)"/>
<path d="M0 0 C7.59 0 15.18 0 23 0 C23 2.31 23 4.62 23 7 C15.41 7 7.82 7 0 7 C0 4.69 0 2.38 0 0 Z " fill="#1F0D1C" transform="translate(258,55)"/>
<path d="M0 0 C4.95 0 9.9 0 15 0 C15 0.33 15 0.66 15 1 C9.06 1.495 9.06 1.495 3 2 C2.67 3.32 2.34 4.64 2 6 C2.969375 6.309375 3.93875 6.61875 4.9375 6.9375 C8 8 8 8 9 9 C9.04080783 10.99958364 9.04254356 13.00045254 9 15 C11.31 15 13.62 15 16 15 C17.43509221 17.87018441 17.11158506 20.33543723 17.09765625 23.5390625 C17.09443359 24.84101563 17.09121094 26.14296875 17.08789062 27.484375 C17.07953466 28.86458399 17.07106971 30.24479232 17.0625 31.625 C17.05748501 33.01301926 17.0529221 34.40104022 17.04882812 35.7890625 C17.03700976 39.19275132 17.02053434 42.59635439 17 46 C17.969375 45.979375 18.93875 45.95875 19.9375 45.9375 C23 46 23 46 24 47 C24.14115161 49.67058851 24.04247107 52.32432238 24 55 C23.67 55 23.34 55 23 55 C22.67 53.02 22.34 51.04 22 49 C20.02 49 18.04 49 16 49 C14.51320275 46.02640551 14.88887395 43.33700821 14.90234375 40.0234375 C14.9037587 39.33819 14.90517365 38.6529425 14.90663147 37.94692993 C14.91223325 35.75624239 14.92478594 33.5656567 14.9375 31.375 C14.94251478 29.89062648 14.94707772 28.40625135 14.95117188 26.921875 C14.96220323 23.28121685 14.97946901 19.64061836 15 16 C12.69 16 10.38 16 8 16 C7.690625 14.8553125 7.690625 14.8553125 7.375 13.6875 C5.57929296 10.17770897 3.56863688 9.47400219 0 8 C0 5.36 0 2.72 0 0 Z " fill="#293342" transform="translate(203,445)"/>
<path d="M0 0 C3.5 0.125 3.5 0.125 4.5 1.125 C4.64115161 3.79558851 4.54247107 6.44932238 4.5 9.125 C2.85 9.125 1.2 9.125 -0.5 9.125 C-0.83 9.785 -1.16 10.445 -1.5 11.125 C-1.5 10.465 -1.5 9.805 -1.5 9.125 C-2.16 9.125 -2.82 9.125 -3.5 9.125 C-3.5 11.435 -3.5 13.745 -3.5 16.125 C-6.14 16.125 -8.78 16.125 -11.5 16.125 C-11.54241723 13.79205225 -11.54092937 11.45797433 -11.5 9.125 C-10.5 8.125 -10.5 8.125 -7.4375 8.0625 C-5.9834375 8.0934375 -5.9834375 8.0934375 -4.5 8.125 C-4.520625 6.990625 -4.54125 5.85625 -4.5625 4.6875 C-4.4830721 0.16010972 -4.4830721 0.16010972 0 0 Z " fill="#45374E" transform="translate(183.5,53.875)"/>
<path d="M0 0 C6.39037797 -0.024644 12.78072852 -0.04283317 19.17114258 -0.05493164 C21.34692873 -0.05997308 23.52271147 -0.06680607 25.69848633 -0.07543945 C28.81853067 -0.08751338 31.93853038 -0.09323005 35.05859375 -0.09765625 C36.52733192 -0.10539818 36.52733192 -0.10539818 38.02574158 -0.11329651 C39.37702904 -0.11340981 39.37702904 -0.11340981 40.75561523 -0.11352539 C41.95141457 -0.11685631 41.95141457 -0.11685631 43.17137146 -0.12025452 C45 0 45 0 46 1 C46.04092937 3.33297433 46.04241723 5.66705225 46 8 C43.69 8 41.38 8 39 8 C39 6.02 39 4.04 39 2 C26.46 2 13.92 2 1 2 C1 4.31 1 6.62 1 9 C0.67 9 0.34 9 0 9 C0 6.03 0 3.06 0 0 Z " fill="#2D1A28" transform="translate(172,312)"/>
<path d="M0 0 C4.95 0 9.9 0 15 0 C15 2.64 15 5.28 15 8 C12.69 8 10.38 8 8 8 C8 10.31 8 12.62 8 15 C7.67 15 7.34 15 7 15 C7 12.69 7 10.38 7 8 C2.05 8 -2.9 8 -8 8 C-8 7.67 -8 7.34 -8 7 C-5.36 7 -2.72 7 0 7 C0 4.69 0 2.38 0 0 Z " fill="#5B425C" transform="translate(219,94)"/>
<path d="M0 0 C5.53588533 -0.02464775 11.071739 -0.04283496 16.60766602 -0.05493164 C18.4924373 -0.05997244 20.37720465 -0.06680498 22.26196289 -0.07543945 C24.96501636 -0.08751617 27.66801831 -0.09323068 30.37109375 -0.09765625 C31.21900986 -0.10281754 32.06692596 -0.10797882 32.9405365 -0.11329651 C34.96071068 -0.11349195 36.98077934 -0.06206211 39 0 C40 1 40 1 40.0625 4.5625 C40.041875 5.696875 40.02125 6.83125 40 8 C39.34 8 38.68 8 38 8 C38 6.02 38 4.04 38 2 C28.1 2 18.2 2 8 2 C8 3.98 8 5.96 8 8 C5.69 8 3.38 8 1 8 C0.67 5.36 0.34 2.72 0 0 Z " fill="#2D1A28" transform="translate(281,312)"/>
<path d="M0 0 C2.64 0 5.28 0 8 0 C8 4.95 8 9.9 8 15 C5.69 15 3.38 15 1 15 C1.33 17.97 1.66 20.94 2 24 C1.34 24 0.68 24 0 24 C0 16.08 0 8.16 0 0 Z " fill="#935E49" transform="translate(320,211)"/>
<path d="M0 0 C5.28 0 10.56 0 16 0 C16 2.64 16 5.28 16 8 C10.72 8 5.44 8 0 8 C0 5.36 0 2.72 0 0 Z " fill="#200F1C" transform="translate(117,484)"/>
<path d="M0 0 C2.64 0 5.28 0 8 0 C8 5.28 8 10.56 8 16 C5.36 16 2.72 16 0 16 C0 10.72 0 5.44 0 0 Z " fill="#220E1E" transform="translate(344,461)"/>
<path d="M0 0 C2.64 0 5.28 0 8 0 C8 5.28 8 10.56 8 16 C5.36 16 2.72 16 0 16 C0 10.72 0 5.44 0 0 Z " fill="#1E0D1C" transform="translate(117,453)"/>
<path d="M0 0 C2.64 0 5.28 0 8 0 C8 5.28 8 10.56 8 16 C5.36 16 2.72 16 0 16 C0 10.72 0 5.44 0 0 Z " fill="#9A6347" transform="translate(164,195)"/>
<path d="M0 0 C5.28 0 10.56 0 16 0 C16 2.64 16 5.28 16 8 C10.72 8 5.44 8 0 8 C0 5.36 0 2.72 0 0 Z " fill="#E2DBC1" transform="translate(281,195)"/>
<path d="M0 0 C2.64 0 5.28 0 8 0 C8 5.28 8 10.56 8 16 C5.36 16 2.72 16 0 16 C0 10.72 0 5.44 0 0 Z " fill="#E0D9C3" transform="translate(297,172)"/>
<path d="M0 0 C5.28 0 10.56 0 16 0 C16 2.64 16 5.28 16 8 C10.72 8 5.44 8 0 8 C0 5.36 0 2.72 0 0 Z " fill="#1F0E1C" transform="translate(203,164)"/>
<path d="M0 0 C2.64 0 5.28 0 8 0 C8 5.28 8 10.56 8 16 C5.36 16 2.72 16 0 16 C0 10.72 0 5.44 0 0 Z " fill="#1F0E1C" transform="translate(328,117)"/>
<path d="M0 0 C5.28 0 10.56 0 16 0 C16 2.64 16 5.28 16 8 C15.67 8 15.34 8 15 8 C15 5.69 15 3.38 15 1 C12.36 1 9.72 1 7 1 C7 5.95 7 10.9 7 16 C4.69 16 2.38 16 0 16 C0 10.72 0 5.44 0 0 Z " fill="#94604A" transform="translate(180,109)"/>
<path d="M0 0 C1.39456452 0.00667256 2.78911118 0.01863093 4.18359375 0.03515625 C4.89451172 0.03966797 5.60542969 0.04417969 6.33789062 0.04882812 C8.09899388 0.06064761 9.86005411 0.07858362 11.62109375 0.09765625 C11.62109375 2.73765625 11.62109375 5.37765625 11.62109375 8.09765625 C6.34109375 8.09765625 1.06109375 8.09765625 -4.37890625 8.09765625 C-4.37890625 0.12655798 -4.37890625 0.12655798 0 0 Z " fill="#3A2338" transform="translate(238.37890625,491.90234375)"/>
<path d="M0 0 C2.64 0 5.28 0 8 0 C8 5.28 8 10.56 8 16 C5.69 16 3.38 16 1 16 C0 15 0 15 -0.09765625 11.62109375 C-0.09098369 10.22652923 -0.07902532 8.83198257 -0.0625 7.4375 C-0.05798828 6.72658203 -0.05347656 6.01566406 -0.04882812 5.28320312 C-0.03700864 3.52209987 -0.01907263 1.76103964 0 0 Z " fill="#C56A6E" transform="translate(187,172)"/>
<path d="M0 0 C0.33 0 0.66 0 1 0 C1 2.64 1 5.28 1 8 C3.31 8 5.62 8 8 8 C8 10.64 8 13.28 8 16 C5.69 16 3.38 16 1 16 C1 21.28 1 26.56 1 32 C-1.64 31.67 -4.28 31.34 -7 31 C-7 21.1 -7 11.2 -7 1 C-6.01 1.33 -5.02 1.66 -4 2 C-4.66 2 -5.32 2 -6 2 C-6 11.24 -6 20.48 -6 30 C-4.35 29.67 -2.7 29.34 -1 29 C-0.67 19.43 -0.34 9.86 0 0 Z " fill="#9F6957" transform="translate(179,156)"/>
<path d="M0 0 C2.64 0 5.28 0 8 0 C8 4.95 8 9.9 8 15 C5.36 15.33 2.72 15.66 0 16 C0 10.72 0 5.44 0 0 Z " fill="#1B0E19" transform="translate(117,422)"/>
<path d="M0 0 C2.64 0 5.28 0 8 0 C8 4.95 8 9.9 8 15 C5.36 15 2.72 15 0 15 C0 10.05 0 5.1 0 0 Z " fill="#C26869" transform="translate(328,188)"/>
<path d="M0 0 C2.64 0 5.28 0 8 0 C8 4.95 8 9.9 8 15 C5.36 15 2.72 15 0 15 C0 10.05 0 5.1 0 0 Z " fill="#230E19" transform="translate(164,180)"/>
<path d="M0 0 C5.28 0 10.56 0 16 0 C16 7.92 16 15.84 16 24 C8.41 24 0.82 24 -7 24 C-6.67 23.34 -6.34 22.68 -6 22 C0.93 22 7.86 22 15 22 C15 15.4 15 8.8 15 2 C10.71 2 6.42 2 2 2 C2 3.98 2 5.96 2 8 C1 9 1 9 -2.5625 9.0625 C-3.696875 9.041875 -4.83125 9.02125 -6 9 C-6.33 9.66 -6.66 10.32 -7 11 C-7 9.68 -7 8.36 -7 7 C-4.69 7 -2.38 7 0 7 C0 4.69 0 2.38 0 0 Z " fill="#283745" transform="translate(265,437)"/>
<path d="M0 0 C0.99 0.495 0.99 0.495 2 1 C2.33 7.6 2.66 14.2 3 21 C4.98 21.33 6.96 21.66 9 22 C10.7182542 27.1547626 10.62573804 32.59993463 11 38 C17.6 38 24.2 38 31 38 C31 38.33 31 38.66 31 39 C23.41 39 15.82 39 8 39 C8 34.05 8 29.1 8 24 C5.36 24 2.72 24 0 24 C0 16.08 0 8.16 0 0 Z " fill="#CAA58B" transform="translate(281,109)"/>
<path d="M0 0 C2.31 0 4.62 0 7 0 C7 4.95 7 9.9 7 15 C9.64 15 12.28 15 15 15 C14.67 16.32 14.34 17.64 14 19 C14 18.34 14 17.68 14 17 C11.69 17 9.38 17 7 17 C7 19.31 7 21.62 7 24 C4.36 24 1.72 24 -1 24 C-1 21.03 -1 18.06 -1 15 C1.31 15 3.62 15 6 15 C5.67 10.71 5.34 6.42 5 2 C3.35 1.67 1.7 1.34 0 1 C0 0.67 0 0.34 0 0 Z " fill="#251321" transform="translate(321,78)"/>
<path d="M0 0 C2.31 0 4.62 0 7 0 C7 5.28 7 10.56 7 16 C4.69 16 2.38 16 0 16 C0 10.72 0 5.44 0 0 Z " fill="#1F0D18" transform="translate(172,195)"/>
<path d="M0 0 C0.33 0 0.66 0 1 0 C1 15.51 1 31.02 1 47 C0.67 47 0.34 47 0 47 C0 42.05 0 37.1 0 32 C-2.31 32 -4.62 32 -7 32 C-7 29.03 -7 26.06 -7 23 C-4.69 23 -2.38 23 0 23 C0 15.41 0 7.82 0 0 Z " fill="#211321" transform="translate(382,453)"/>
<path d="M0 0 C2.31 0 4.62 0 7 0 C7 4.95 7 9.9 7 15 C4.69 15 2.38 15 0 15 C0 10.05 0 5.1 0 0 Z " fill="#200B1A" transform="translate(321,188)"/>
<path d="M0 0 C2.31 0 4.62 0 7 0 C7 4.95 7 9.9 7 15 C4.69 15 2.38 15 0 15 C0 10.05 0 5.1 0 0 Z " fill="#D8E5CF" transform="translate(196,172)"/>
<path d="M0 0 C2.33294775 -0.04241723 4.66702567 -0.04092937 7 0 C8.82154757 1.82154757 8.13040996 4.67036835 8.1328125 7.1171875 C8.13410156 8.36371094 8.13539063 9.61023438 8.13671875 10.89453125 C8.13285156 12.20808594 8.12898438 13.52164062 8.125 14.875 C8.13080078 16.83373047 8.13080078 16.83373047 8.13671875 18.83203125 C8.13542969 20.08113281 8.13414062 21.33023437 8.1328125 22.6171875 C8.13168457 23.76815918 8.13055664 24.91913086 8.12939453 26.10498047 C8 29 8 29 7 32 C4.69 32 2.38 32 0 32 C0 39.59 0 47.18 0 55 C-5.28 55 -10.56 55 -16 55 C-16 54.67 -16 54.34 -16 54 C-11.38 54 -6.76 54 -2 54 C-1.67 46.41 -1.34 38.82 -1 31 C1.31 30.01 3.62 29.02 6 28 C6.33 19.42 6.66 10.84 7 2 C5.02 2 3.04 2 1 2 C0.67 1.34 0.34 0.68 0 0 Z " fill="#2C2C3D" transform="translate(219,359)"/>
<path d="M0 0 C3.6815625 -0.0309375 3.6815625 -0.0309375 7.4375 -0.0625 C8.21150146 -0.071604 8.98550293 -0.08070801 9.78295898 -0.09008789 C11.52221717 -0.09724913 13.26145304 -0.05024702 15 0 C16.87725894 1.87725894 16.21702304 4.92850307 16.25 7.4375 C16.27578125 8.61183594 16.3015625 9.78617187 16.328125 10.99609375 C16.21984375 11.98738281 16.1115625 12.97867187 16 14 C11.0754853 17.2830098 5.82305673 16.11530805 0 16 C0 10.72 0 5.44 0 0 Z M2 1 C0.68737429 2.08552366 0.68737429 2.08552366 0.90234375 4.72265625 C0.91394531 5.82480469 0.92554688 6.92695313 0.9375 8.0625 C0.94652344 9.16722656 0.95554687 10.27195312 0.96484375 11.41015625 C0.97644531 12.26480469 0.98804688 13.11945313 1 14 C2.97909398 14.02686553 4.95828971 14.04633375 6.9375 14.0625 C8.59072266 14.07990234 8.59072266 14.07990234 10.27734375 14.09765625 C12.91447634 14.31262571 12.91447634 14.31262571 14 13 C14.21326403 7.3952291 14.21326403 7.3952291 13 2 C11.18818595 1.80598367 9.37551468 1.61995625 7.5625 1.4375 C6.55316406 1.33308594 5.54382813 1.22867187 4.50390625 1.12109375 C3.67761719 1.08113281 2.85132813 1.04117187 2 1 Z " fill="#2C2A3B" transform="translate(281,375)"/>
<path d="M0 0 C5.61 0 11.22 0 17 0 C17 2.64 17 5.28 17 8 C19.64 8 22.28 8 25 8 C25 10.64 25 13.28 25 16 C24.34 16 23.68 16 23 16 C23 13.69 23 11.38 23 9 C20.69 9 18.38 9 16 9 C16 6.36 16 3.72 16 1 C11.71 1 7.42 1 3 1 C3 5.95 3 10.9 3 16 C2.01 16 1.02 16 0 16 C0 10.72 0 5.44 0 0 Z " fill="#273643" transform="translate(288,484)"/>
<path d="M0 0 C10.23 0 20.46 0 31 0 C31 0.33 31 0.66 31 1 C23.41 1 15.82 1 8 1 C8 3.31 8 5.62 8 8 C5.36 8 2.72 8 0 8 C0 5.36 0 2.72 0 0 Z " fill="#685362" transform="translate(203,148)"/>
<path d="M0 0 C2.64 0 5.28 0 8 0 C8 2.31 8 4.62 8 7 C10.64 7 13.28 7 16 7 C16 7.33 16 7.66 16 8 C5.77 8 -4.46 8 -15 8 C-15 7.67 -15 7.34 -15 7 C-10.05 7 -5.1 7 0 7 C0 4.69 0 2.38 0 0 Z " fill="#8D6055" transform="translate(281,94)"/>
<path d="M0 0 C10.23 0 20.46 0 31 0 C30.67 0.66 30.34 1.32 30 2 C29.25838623 2.02505615 28.51677246 2.0501123 27.75268555 2.07592773 C24.39744672 2.19186132 21.04249056 2.31459985 17.6875 2.4375 C16.52025391 2.47681641 15.35300781 2.51613281 14.15039062 2.55664062 C13.03212891 2.59853516 11.91386719 2.64042969 10.76171875 2.68359375 C9.2142395 2.73858032 9.2142395 2.73858032 7.63549805 2.79467773 C4.89251742 2.90161242 4.89251742 2.90161242 2 4 C2 7.63 2 11.26 2 15 C1.34 15 0.68 15 0 15 C0 10.05 0 5.1 0 0 Z " fill="#E1DDBE" transform="translate(219,117)"/>
<path d="M0 0 C2.64 0 5.28 0 8 0 C8 2.31 8 4.62 8 7 C13.28 7 18.56 7 24 7 C24 7.33 24 7.66 24 8 C16.08 8 8.16 8 0 8 C0 5.36 0 2.72 0 0 Z " fill="#4D2C2F" transform="translate(234,297)"/>
<path d="M0 0 C2.64 0 5.28 0 8 0 C8 2.64 8 5.28 8 8 C5.69 8 3.38 8 1 8 C1 10.64 1 13.28 1 16 C0.67 16 0.34 16 0 16 C0 13.36 0 10.72 0 8 C-2.31 8 -4.62 8 -7 8 C-7 7.67 -7 7.34 -7 7 C-4.69 7 -2.38 7 0 7 C0 4.69 0 2.38 0 0 Z " fill="#5A4561" transform="translate(234,86)"/>
<path d="M0 0 C0 2.97 0 5.94 0 9 C-2.64 9 -5.28 9 -8 9 C-8 8.67 -8 8.34 -8 8 C-5.69 8 -3.38 8 -1 8 C-1 6.02 -1 4.04 -1 2 C-8.26 1.67 -15.52 1.34 -23 1 C-23 5.62 -23 10.24 -23 15 C-18.05 15 -13.1 15 -8 15 C-8 15.33 -8 15.66 -8 16 C-13.28 16 -18.56 16 -24 16 C-24 10.72 -24 5.44 -24 0 C-8.14285714 -1.28571429 -8.14285714 -1.28571429 0 0 Z " fill="#2B3443" transform="translate(344,359)"/>
<path d="M0 0 C3.5 0.125 3.5 0.125 4.5 1.125 C4.57226502 2.97787502 4.5838122 4.83333878 4.5625 6.6875 C4.55347656 7.69941406 4.54445313 8.71132813 4.53515625 9.75390625 C4.52355469 10.53636719 4.51195312 11.31882812 4.5 12.125 C4.17 10.805 3.84 9.485 3.5 8.125 C0.86 8.125 -1.78 8.125 -4.5 8.125 C-4.54241723 5.79205225 -4.54092937 3.45797433 -4.5 1.125 C-3.5 0.125 -3.5 0.125 0 0 Z " fill="#120811" transform="translate(363.5,358.875)"/>
<path d="M0 0 C0.33 0 0.66 0 1 0 C1 2.31 1 4.62 1 7 C-0.65 7.33 -2.3 7.66 -4 8 C-4.33 9.98 -4.66 11.96 -5 14 C1.93 14.495 1.93 14.495 9 15 C9 17.64 9 20.28 9 23 C4.38 23 -0.24 23 -5 23 C-5 22.67 -5 22.34 -5 22 C-0.71 22 3.58 22 8 22 C8 20.02 8 18.04 8 16 C7.01257813 16.03480469 6.02515625 16.06960938 5.0078125 16.10546875 C3.72648438 16.13253906 2.44515625 16.15960938 1.125 16.1875 C-0.78925781 16.23970703 -0.78925781 16.23970703 -2.7421875 16.29296875 C-3.81726563 16.19628906 -4.89234375 16.09960938 -6 16 C-8.30019361 12.54970958 -8.43132515 11.05445642 -8 7 C-4.77208445 4.8480563 -3.71599191 4.79913557 0 5 C0 3.35 0 1.7 0 0 Z " fill="#223944" transform="translate(241,469)"/>
<path d="M0 0 C2.64 0 5.28 0 8 0 C8 2.31 8 4.62 8 7 C10.31 7 12.62 7 15 7 C15 7.33 15 7.66 15 8 C10.05 8 5.1 8 0 8 C0 5.36 0 2.72 0 0 Z " fill="#92604A" transform="translate(258,172)"/>
<path d="M0 0 C3.5 0.125 3.5 0.125 4.5 1.125 C4.54092937 3.45797433 4.54241723 5.79205225 4.5 8.125 C1.53 8.125 -1.44 8.125 -4.5 8.125 C-4.54241723 5.79205225 -4.54092937 3.45797433 -4.5 1.125 C-3.5 0.125 -3.5 0.125 0 0 Z " fill="#82BFC2" transform="translate(355.5,343.875)"/>
<path d="M0 0 C2.64 0 5.28 0 8 0 C8 4.29 8 8.58 8 13 C7.67 13 7.34 13 7 13 C7 11.35 7 9.7 7 8 C4.69 8 2.38 8 0 8 C0 5.36 0 2.72 0 0 Z " fill="#33273B" transform="translate(242,383)"/>
<path d="M0 0 C2.05078125 0.03255208 4.1015625 0.06510417 6.15234375 0.09765625 C6.15234375 0.75765625 6.15234375 1.41765625 6.15234375 2.09765625 C3.84234375 2.09765625 1.53234375 2.09765625 -0.84765625 2.09765625 C-0.84241943 2.72857178 -0.83718262 3.3594873 -0.83178711 4.00952148 C-0.81107799 6.85138972 -0.79801559 9.69324213 -0.78515625 12.53515625 C-0.77677734 13.52837891 -0.76839844 14.52160156 -0.75976562 15.54492188 C-0.75654297 16.48916016 -0.75332031 17.43339844 -0.75 18.40625 C-0.74476318 19.28079834 -0.73952637 20.15534668 -0.73413086 21.05639648 C-0.84765625 23.09765625 -0.84765625 23.09765625 -1.84765625 24.09765625 C-4.51824476 24.23880786 -7.17197863 24.14012732 -9.84765625 24.09765625 C-9.84765625 23.76765625 -9.84765625 23.43765625 -9.84765625 23.09765625 C-7.53765625 23.09765625 -5.22765625 23.09765625 -2.84765625 23.09765625 C-2.85289307 22.43644775 -2.85812988 21.77523926 -2.86352539 21.09399414 C-2.88423281 18.11605774 -2.89729637 15.13813643 -2.91015625 12.16015625 C-2.91853516 11.11923828 -2.92691406 10.07832031 -2.93554688 9.00585938 C-2.93876953 8.01650391 -2.94199219 7.02714844 -2.9453125 6.0078125 C-2.95054932 5.09136963 -2.95578613 4.17492676 -2.96118164 3.23071289 C-2.8178913 0.53839524 -2.70088781 0.14275306 0 0 Z " fill="#263644" transform="translate(267.84765625,366.90234375)"/>
<path d="M0 0 C2.64 0 5.28 0 8 0 C6.625 1.5 6.625 1.5 5 3 C4.34 3 3.68 3 3 3 C3.33 4.98 3.66 6.96 4 9 C1.36 9.66 -1.28 10.32 -4 11 C-4 11.66 -4 12.32 -4 13 C-2.68 13 -1.36 13 0 13 C0 13.66 0 14.32 0 15 C-2.31 15 -4.62 15 -7 15 C-7 12.69 -7 10.38 -7 8 C-4.69 8 -2.38 8 0 8 C0 5.36 0 2.72 0 0 Z " fill="#44222B" transform="translate(273,164)"/>
<path d="M0 0 C2.64 0 5.28 0 8 0 C8 2.64 8 5.28 8 8 C5.36 8 2.72 8 0 8 C0 5.36 0 2.72 0 0 Z " fill="#3A839B" transform="translate(109,492)"/>
<path d="M0 0 C2.64 0 5.28 0 8 0 C8 2.64 8 5.28 8 8 C5.36 8 2.72 8 0 8 C0 5.36 0 2.72 0 0 Z " fill="#251021" transform="translate(148,406)"/>
<path d="M0 0 C2.64 0 5.28 0 8 0 C8 2.64 8 5.28 8 8 C5.36 8 2.72 8 0 8 C0 5.36 0 2.72 0 0 Z " fill="#56445E" transform="translate(125,367)"/>
<path d="M0 0 C2.97 0.33 5.94 0.66 9 1 C9 3.31 9 5.62 9 8 C6.03 8 3.06 8 0 8 C0 5.36 0 2.72 0 0 Z " fill="#210D1D" transform="translate(132,359)"/>
<path d="M0 0 C2.64 0 5.28 0 8 0 C8 2.64 8 5.28 8 8 C5.36 8 2.72 8 0 8 C0 5.36 0 2.72 0 0 Z " fill="#50405A" transform="translate(133,351)"/>
<path d="M0 0 C2.64 0 5.28 0 8 0 C8 2.64 8 5.28 8 8 C5.36 8 2.72 8 0 8 C0 5.36 0 2.72 0 0 Z " fill="#5F475A" transform="translate(258,297)"/>
<path d="M0 0 C2.64 0 5.28 0 8 0 C8 2.64 8 5.28 8 8 C5.36 8 2.72 8 0 8 C0 5.36 0 2.72 0 0 Z " fill="#946049" transform="translate(328,227)"/>
<path d="M0 0 C2.64 0 5.28 0 8 0 C8 4.95 8 9.9 8 15 C7.67 15 7.34 15 7 15 C7 12.36 7 9.72 7 7 C4.69 7 2.38 7 0 7 C0 4.69 0 2.38 0 0 Z " fill="#945E4F" transform="translate(172,219)"/>
<path d="M0 0 C2.64 0 5.28 0 8 0 C8 2.64 8 5.28 8 8 C5.36 8 2.72 8 0 8 C0 5.36 0 2.72 0 0 Z " fill="#916047" transform="translate(336,219)"/>
<path d="M0 0 C2.64 0 5.28 0 8 0 C8 2.64 8 5.28 8 8 C5.36 8 2.72 8 0 8 C0 5.36 0 2.72 0 0 Z " fill="#3B2136" transform="translate(172,211)"/>
<path d="M0 0 C2.64 0 5.28 0 8 0 C8 2.64 8 5.28 8 8 C5.36 8 2.72 8 0 8 C0 5.36 0 2.72 0 0 Z " fill="#9C6A54" transform="translate(312,203)"/>
<path d="M0 0 C2.64 0 5.28 0 8 0 C8 2.64 8 5.28 8 8 C5.36 8 2.72 8 0 8 C0 5.36 0 2.72 0 0 Z " fill="#9B6A55" transform="translate(187,203)"/>
<path d="M0 0 C2.64 0 5.28 0 8 0 C8 2.64 8 5.28 8 8 C5.36 8 2.72 8 0 8 C0 5.36 0 2.72 0 0 Z " fill="#21101D" transform="translate(281,203)"/>
<path d="M0 0 C2.64 0 5.28 0 8 0 C8 2.64 8 5.28 8 8 C5.36 8 2.72 8 0 8 C0 5.36 0 2.72 0 0 Z " fill="#9A6146" transform="translate(148,203)"/>
<path d="M0 0 C2.64 0 5.28 0 8 0 C8 2.64 8 5.28 8 8 C5.36 8 2.72 8 0 8 C0 5.36 0 2.72 0 0 Z " fill="#E3DBC1" transform="translate(211,195)"/>
<path d="M0 0 C2.64 0 5.28 0 8 0 C8 2.64 8 5.28 8 8 C5.36 8 2.72 8 0 8 C0 5.36 0 2.72 0 0 Z " fill="#CE656D" transform="translate(156,187)"/>
<path d="M0 0 C2.64 0 5.28 0 8 0 C8 2.64 8 5.28 8 8 C5.36 8 2.72 8 0 8 C0 5.36 0 2.72 0 0 Z " fill="#DCDBBA" transform="translate(242,180)"/>
<path d="M0 0 C2.64 0 5.28 0 8 0 C8 2.64 8 5.28 8 8 C5.36 8 2.72 8 0 8 C0 5.36 0 2.72 0 0 Z " fill="#D0DAC8" transform="translate(281,172)"/>
<path d="M0 0 C1.32 0 2.64 0 4 0 C4 4.29 4 8.58 4 13 C2.35 13 0.7 13 -1 13 C-1.02686553 11.02090602 -1.04633375 9.04171029 -1.0625 7.0625 C-1.07410156 5.96035156 -1.08570313 4.85820312 -1.09765625 3.72265625 C-1 1 -1 1 0 0 Z " fill="#D3E5C9" transform="translate(299,173)"/>
<path d="M0 0 C2.64 0 5.28 0 8 0 C8 2.64 8 5.28 8 8 C5.36 8 2.72 8 0 8 C0 5.36 0 2.72 0 0 Z " fill="#210F1B" transform="translate(164,164)"/>
<path d="M0 0 C2.64 0 5.28 0 8 0 C8 2.64 8 5.28 8 8 C5.36 8 2.72 8 0 8 C0 5.36 0 2.72 0 0 Z " fill="#3F201F" transform="translate(187,148)"/>
<path d="M0 0 C2.64 0 5.28 0 8 0 C8 2.64 8 5.28 8 8 C5.36 8 2.72 8 0 8 C0 5.36 0 2.72 0 0 Z " fill="#230E1F" transform="translate(195,62)"/>
<path d="M0 0 C1.134375 0.020625 2.26875 0.04125 3.4375 0.0625 C3.4375 2.7025 3.4375 5.3425 3.4375 8.0625 C0.7975 8.0625 -1.8425 8.0625 -4.5625 8.0625 C-4.60491723 5.72955225 -4.60342937 3.39547433 -4.5625 1.0625 C-3.5625 0.0625 -3.5625 0.0625 0 0 Z " fill="#36253A" transform="translate(246.5625,444.9375)"/>
<path d="M0 0 C2.31 0 4.62 0 7 0 C7 2.97 7 5.94 7 9 C4.69 9 2.38 9 0 9 C0 6.03 0 3.06 0 0 Z " fill="#C4656E" transform="translate(172,226)"/>
<path d="M0 0 C2.64 0 5.28 0 8 0 C8.04241723 2.33294775 8.04092937 4.66702567 8 7 C7 8 7 8 3.4375 8.0625 C2.303125 8.041875 1.16875 8.02125 0 8 C0 5.36 0 2.72 0 0 Z " fill="#C3686D" transform="translate(156,219)"/>
<path d="M0 0 C1.134375 0.020625 2.26875 0.04125 3.4375 0.0625 C3.4375 2.7025 3.4375 5.3425 3.4375 8.0625 C0.7975 8.0625 -1.8425 8.0625 -4.5625 8.0625 C-4.60491723 5.72955225 -4.60342937 3.39547433 -4.5625 1.0625 C-3.5625 0.0625 -3.5625 0.0625 0 0 Z " fill="#7EB9B7" transform="translate(176.5625,61.9375)"/>
<path d="M0 0 C0 2.64 0 5.28 0 8 C-2.64 8 -5.28 8 -8 8 C-8 5.69 -8 3.38 -8 1 C-5.29120665 -0.35439668 -2.99066732 -0.06501451 0 0 Z " fill="#33273C" transform="translate(250,398)"/>
<path d="M0 0 C2.64 0 5.28 0 8 0 C8 2.64 8 5.28 8 8 C5.125 8.1875 5.125 8.1875 2 8 C-0.1519437 4.77208445 -0.20086443 3.71599191 0 0 Z " fill="#39233A" transform="translate(242,422)"/>
<path d="M0 0 C0.91007812 0.00902344 1.82015625 0.01804688 2.7578125 0.02734375 C3.45648438 0.03894531 4.15515625 0.05054688 4.875 0.0625 C4.875 1.7125 4.875 3.3625 4.875 5.0625 C0.915 5.0625 -3.045 5.0625 -7.125 5.0625 C-7.125 3.7425 -7.125 2.4225 -7.125 1.0625 C-4.60024538 -0.19987731 -2.81299534 -0.03606404 0 0 Z " fill="#D2E5C7" transform="translate(290.125,196.9375)"/>
<path d="M0 0 C2.64 0.33 5.28 0.66 8 1 C9.125 5.75 9.125 5.75 8 8 C5.36 8 2.72 8 0 8 C0 5.36 0 2.72 0 0 Z " fill="#79B0B1" transform="translate(312,54)"/>
<path d="M0 0 C2.64 0 5.28 0 8 0 C8 2.64 8 5.28 8 8 C5.69 8 3.38 8 1 8 C0.67 5.36 0.34 2.72 0 0 Z " fill="#1C0C18" transform="translate(281,312)"/>
<path d="M0 0 C2.64 0 5.28 0 8 0 C8 2.31 8 4.62 8 7 C5.36 7.33 2.72 7.66 0 8 C0 5.36 0 2.72 0 0 Z " fill="#5D485D" transform="translate(320,180)"/>
<path d="M0 0 C2.31 0 4.62 0 7 0 C7 2.64 7 5.28 7 8 C4.69 8 2.38 8 0 8 C0 5.36 0 2.72 0 0 Z " fill="#200D1C" transform="translate(352,492)"/>
<path d="M0 0 C2.31 0 4.62 0 7 0 C7 2.64 7 5.28 7 8 C4.69 8 2.38 8 0 8 C0 5.36 0 2.72 0 0 Z " fill="#5D455E" transform="translate(266,320)"/>
<path d="M0 0 C2.31 0 4.62 0 7 0 C7 2.64 7 5.28 7 8 C4.69 8 2.38 8 0 8 C0 5.36 0 2.72 0 0 Z " fill="#CD6671" transform="translate(258,320)"/>
<path d="M0 0 C2.31 0 4.62 0 7 0 C7 2.64 7 5.28 7 8 C4.69 8 2.38 8 0 8 C0 5.36 0 2.72 0 0 Z " fill="#9A654E" transform="translate(227,195)"/>
<path d="M0 0 C3.3 0 6.6 0 10 0 C10.2475 0.928125 10.495 1.85625 10.75 2.8125 C12.06454245 6.16458325 12.97963384 7.1877803 16 9 C13.69 9 11.38 9 9 9 C9 6.36 9 3.72 9 1 C6.36 1 3.72 1 1 1 C1 3.64 1 6.28 1 9 C-3.95 9 -8.9 9 -14 9 C-14 8.67 -14 8.34 -14 8 C-9.38 8 -4.76 8 0 8 C0 5.36 0 2.72 0 0 Z " fill="#CBA18A" transform="translate(210,194)"/>
<path d="M0 0 C2.64 0 5.28 0 8 0 C8 2.31 8 4.62 8 7 C5.36 7 2.72 7 0 7 C0 4.69 0 2.38 0 0 Z " fill="#976349" transform="translate(328,188)"/>
<path d="M0 0 C2.64 0 5.28 0 8 0 C8 2.31 8 4.62 8 7 C5.36 7 2.72 7 0 7 C0 4.69 0 2.38 0 0 Z " fill="#3E2238" transform="translate(281,180)"/>
<path d="M0 0 C2.31 0 4.62 0 7 0 C7 2.64 7 5.28 7 8 C4.69 8 2.38 8 0 8 C0 5.36 0 2.72 0 0 Z " fill="#401F2E" transform="translate(188,172)"/>
<path d="M0 0 C2.31 0 4.62 0 7 0 C7 2.64 7 5.28 7 8 C4.69 8 2.38 8 0 8 C0 5.36 0 2.72 0 0 Z " fill="#97624B" transform="translate(266,164)"/>
<path d="M0 0 C2.64 0 5.28 0 8 0 C8 2.31 8 4.62 8 7 C5.36 7 2.72 7 0 7 C0 4.69 0 2.38 0 0 Z " fill="#220E1C" transform="translate(281,164)"/>
<path d="M0 0 C2.31 0 4.62 0 7 0 C7 2.64 7 5.28 7 8 C4.69 8 2.38 8 0 8 C0 5.36 0 2.72 0 0 Z " fill="#CE666E" transform="translate(180,164)"/>
<path d="M0 0 C2.64 0 5.28 0 8 0 C8 2.31 8 4.62 8 7 C5.36 7 2.72 7 0 7 C0 4.69 0 2.38 0 0 Z " fill="#1F0D1A" transform="translate(328,149)"/>
<path d="M0 0 C2.31 0 4.62 0 7 0 C7 2.64 7 5.28 7 8 C4.69 8 2.38 8 0 8 C0 5.36 0 2.72 0 0 Z " fill="#9B6142" transform="translate(305,117)"/>
<path d="M0 0 C2.31 0 4.62 0 7 0 C7 2.64 7 5.28 7 8 C4.69 8 2.38 8 0 8 C0 5.36 0 2.72 0 0 Z " fill="#210A16" transform="translate(305,109)"/>
<path d="M0 0 C2.64 0 5.28 0 8 0 C8 2.31 8 4.62 8 7 C5.36 7 2.72 7 0 7 C0 4.69 0 2.38 0 0 Z " fill="#5E4660" transform="translate(258,102)"/>
<path d="M0 0 C1.99954746 -0.04254356 4.00041636 -0.04080783 6 0 C7 1 7 1 7.0625 4.5625 C7.041875 5.696875 7.02125 6.83125 7 8 C4.69 8 2.38 8 0 8 C0 5.36 0 2.72 0 0 Z " fill="#1D0B18" transform="translate(211,312)"/>
<path d="M0 0 C2.31 0 4.62 0 7 0 C7 2.31 7 4.62 7 7 C4.69 7 2.38 7 0 7 C0 4.69 0 2.38 0 0 Z " fill="#56445E" transform="translate(375,446)"/>
<path d="M0 0 C2.31 0 4.62 0 7 0 C7 2.31 7 4.62 7 7 C4.69 7 2.38 7 0 7 C0 4.69 0 2.38 0 0 Z " fill="#594361" transform="translate(165,321)"/>
<path d="M0 0 C2.31 0 4.62 0 7 0 C7 2.31 7 4.62 7 7 C4.69 7 2.38 7 0 7 C0 4.69 0 2.38 0 0 Z " fill="#200B17" transform="translate(235,196)"/>
<path d="M0 0 C2.31 0 4.62 0 7 0 C7 2.31 7 4.62 7 7 C4.69 7 2.38 7 0 7 C0 4.69 0 2.38 0 0 Z " fill="#E3E9D5" transform="translate(266,180)"/>
<path d="M0 0 C2.31 0 4.62 0 7 0 C7 2.31 7 4.62 7 7 C4.69 7 2.38 7 0 7 C0 4.69 0 2.38 0 0 Z " fill="#57445B" transform="translate(274,180)"/>
<path d="M0 0 C2.31 0 4.62 0 7 0 C7 2.31 7 4.62 7 7 C4.69 7 2.38 7 0 7 C0 4.69 0 2.38 0 0 Z " fill="#3D1C2F" transform="translate(305,149)"/>
<path d="M0 0 C2.31 0 4.62 0 7 0 C7 2.31 7 4.62 7 7 C4.69 7 2.38 7 0 7 C0 4.69 0 2.38 0 0 Z " fill="#D6A088" transform="translate(227,94)"/>
<path d="M0 0 C5.28 0 10.56 0 16 0 C16 1.65 16 3.3 16 5 C15.34 4.34 14.68 3.68 14 3 C11.88962955 2.79494955 11.88962955 2.79494955 9.5625 2.9375 C6.56312088 3.05115028 4.90729453 2.96909818 2 2 C2 3.98 2 5.96 2 8 C1.34 8 0.68 8 0 8 C0 5.36 0 2.72 0 0 Z " fill="#2C1B28" transform="translate(234,23)"/>
<path d="M0 0 C2.31 0 4.62 0 7 0 C7.04254356 1.99954746 7.04080783 4.00041636 7 6 C6 7 6 7 2.9375 7.0625 C1.4834375 7.0315625 1.4834375 7.0315625 0 7 C0 4.69 0 2.38 0 0 Z " fill="#372339" transform="translate(274,352)"/>
<path d="M0 0 C1.99954746 -0.04254356 4.00041636 -0.04080783 6 0 C7 1 7 1 7.0625 4.0625 C7.041875 5.031875 7.02125 6.00125 7 7 C4.69 7 2.38 7 0 7 C0 4.69 0 2.38 0 0 Z " fill="#200C1C" transform="translate(274,211)"/>
<path d="M0 0 C2.47923801 -0.02685095 4.9581884 -0.04676547 7.4375 -0.0625 C8.14455078 -0.07087891 8.85160156 -0.07925781 9.58007812 -0.08789062 C11.38693559 -0.09653588 13.19387603 -0.05220011 15 0 C16 1 16 1 16.09765625 4.37890625 C16.09098369 5.77347077 16.07902532 7.16801743 16.0625 8.5625 C16.05798828 9.27341797 16.05347656 9.98433594 16.04882812 10.71679688 C16.03700864 12.47790013 16.01907263 14.23896036 16 16 C15.34 16 14.68 16 14 16 C14 11.38 14 6.76 14 2 C7.07 1.505 7.07 1.505 0 1 C0 0.67 0 0.34 0 0 Z " fill="#273542" transform="translate(204,429)"/>
<path d="M0 0 C0.12375 0.94875 0.2475 1.8975 0.375 2.875 C0.71687177 6.08667191 0.71687177 6.08667191 3 8 C2.01 8.33 1.02 8.66 0 9 C-1.21869929 11.50447516 -1.21869929 11.50447516 -2 14 C-3.125 10.25 -3.125 10.25 -2 8 C-2.66 8 -3.32 8 -4 8 C-4 5.69 -4 3.38 -4 1 C-2 0 -2 0 0 0 Z " fill="#776256" transform="translate(223,305)"/>
<path d="M0 0 C0.66 0.66 1.32 1.32 2 2 C3.175625 2.309375 4.35125 2.61875 5.5625 2.9375 C6.696875 3.288125 7.83125 3.63875 9 4 C10.09190042 7.27570125 10.28600189 9.56797729 10 13 C8.875 14.8125 8.875 14.8125 7 16 C3.8125 16.6875 3.8125 16.6875 1 17 C1 16.01 1 15.02 1 14 C3.31 14 5.62 14 8 14 C8 11.03 8 8.06 8 5 C5.36 5 2.72 5 0 5 C0 3.35 0 1.7 0 0 Z " fill="#401C27" transform="translate(289,96)"/>
<path d="M0 0 C0.33 0 0.66 0 1 0 C1 2.31 1 4.62 1 7 C2.32 7 3.64 7 5 7 C5 6.34 5 5.68 5 5 C5.99 5 6.98 5 8 5 C9.60725635 8.21451269 9.05748185 11.43612536 9 15 C13.62 15 18.24 15 23 15 C23 15.33 23 15.66 23 16 C18.05 16 13.1 16 8 16 C8 13.36 8 10.72 8 8 C5.36 8 2.72 8 0 8 C0 5.36 0 2.72 0 0 Z " fill="#9C6957" transform="translate(219,164)"/>
<path d="M0 0 C5.28 0 10.56 0 16 0 C16 0.66 16 1.32 16 2 C11.38 2 6.76 2 2 2 C2 3.98 2 5.96 2 8 C1.34 8 0.68 8 0 8 C0 5.36 0 2.72 0 0 Z " fill="#281C26" transform="translate(218,31)"/>
<path d="M0 0 C0.66 0 1.32 0 2 0 C2 5.28 2 10.56 2 16 C-0.31 16 -2.62 16 -5 16 C-5.33 15.34 -5.66 14.68 -6 14 C-4.02 14 -2.04 14 0 14 C0 9.38 0 4.76 0 0 Z " fill="#0C070E" transform="translate(311,250)"/>
<path d="M0 0 C4.95 0 9.9 0 15 0 C15 7.59 15 15.18 15 23 C12.81418776 18.62837552 12.7990112 15.53370921 12.9375 10.8125 C12.99912415 8.20374412 13.0206479 5.61048428 13 3 C11.18884044 1.18884044 8.38721773 1.61800552 5.9375 1.4375 C4.83277344 1.35371094 3.72804688 1.26992187 2.58984375 1.18359375 C1.73519531 1.12300781 0.88054687 1.06242187 0 1 C0 0.67 0 0.34 0 0 Z " fill="#E3D9BB" transform="translate(266,109)"/>
<path d="M0 0 C5.28 0 10.56 0 16 0 C16 2.64 16 5.28 16 8 C15.67 8 15.34 8 15 8 C15 5.69 15 3.38 15 1 C10.71 1 6.42 1 2 1 C2.33 1.99 2.66 2.98 3 4 C2.5625 6.1875 2.5625 6.1875 2 8 C1.34 8 0.68 8 0 8 C0 5.36 0 2.72 0 0 Z " fill="#341514" transform="translate(203,164)"/>
<path d="M0 0 C4.95 0 9.9 0 15 0 C15 0.66 15 1.32 15 2 C10.38 2 5.76 2 1 2 C1 2.99 1 3.98 1 5 C0.34 5 -0.32 5 -1 5 C-0.67 3.35 -0.34 1.7 0 0 Z " fill="#231824" transform="translate(141,343)"/>
<path d="M0 0 C0.33 0 0.66 0 1 0 C1 2.31 1 4.62 1 7 C3.31 7 5.62 7 8 7 C8 7.33 8 7.66 8 8 C5.69 8 3.38 8 1 8 C1 10.31 1 12.62 1 15 C0.67 15 0.34 15 0 15 C0 12.69 0 10.38 0 8 C-4.95 8 -9.9 8 -15 8 C-15 7.67 -15 7.34 -15 7 C-10.05 7 -5.1 7 0 7 C0 4.69 0 2.38 0 0 Z " fill="#8E6364" transform="translate(226,94)"/>
<path d="M0 0 C2.0625 0.4375 2.0625 0.4375 4 1 C4.33 2.98 4.66 4.96 5 7 C3.02 7 1.04 7 -1 7 C-1.04254356 5.00045254 -1.04080783 2.99958364 -1 1 C-0.67 0.67 -0.34 0.34 0 0 Z " fill="#C2E0CF" transform="translate(214,140)"/>
<path d="M0 0 C2.64 0 5.28 0 8 0 C4 6.57142857 4 6.57142857 0 8 C0 5.36 0 2.72 0 0 Z " fill="#C3907E" transform="translate(203,109)"/>
<path d="M0 0 C1.98 0 3.96 0 6 0 C5.52949219 0.36738281 5.05898437 0.73476563 4.57421875 1.11328125 C2.4209116 3.69404391 2.27424808 5.88422526 1.8125 9.1875 C1.65394531 10.27417969 1.49539062 11.36085938 1.33203125 12.48046875 C1.22246094 13.31191406 1.11289063 14.14335937 1 15 C0.67 15 0.34 15 0 15 C0 10.05 0 5.1 0 0 Z " fill="#31212D" transform="translate(117,469)"/>
<path d="M0 0 C2.64 0 5.28 0 8 0 C8 5.28 8 10.56 8 16 C7.67 16 7.34 16 7 16 C7 11.71 7 7.42 7 3 C4.69 2.67 2.38 2.34 0 2 C0 1.34 0 0.68 0 0 Z " fill="#885A4D" transform="translate(164,195)"/>
<path d="M0 0 C4.95 0 9.9 0 15 0 C15 0.33 15 0.66 15 1 C13.71802734 1.09087891 13.71802734 1.09087891 12.41015625 1.18359375 C10.75306641 1.30927734 10.75306641 1.30927734 9.0625 1.4375 C7.96035156 1.51871094 6.85820312 1.59992188 5.72265625 1.68359375 C3.08890097 1.70418084 3.08890097 1.70418084 2 3 C1.76572222 5.01594582 1.58663876 7.038474 1.4375 9.0625 C1.35371094 10.16722656 1.26992187 11.27195312 1.18359375 12.41015625 C1.12300781 13.26480469 1.06242188 14.11945313 1 15 C0.67 15 0.34 15 0 15 C0 10.05 0 5.1 0 0 Z " fill="#273A45" transform="translate(203,414)"/>
<path d="M0 0 C3.5 0.125 3.5 0.125 4.5 1.125 C4.54092937 3.45797433 4.54241723 5.79205225 4.5 8.125 C1.53 8.125 -1.44 8.125 -4.5 8.125 C-4.54241723 5.79205225 -4.54092937 3.45797433 -4.5 1.125 C-3.5 0.125 -3.5 0.125 0 0 Z M-1.5 1.125 C-2.16 1.785 -2.82 2.445 -3.5 3.125 C-3.5 4.445 -3.5 5.765 -3.5 7.125 C-1.19 7.125 1.12 7.125 3.5 7.125 C3.5 5.475 3.5 3.825 3.5 2.125 C1.10280568 1.44541397 1.10280568 1.44541397 -1.5 1.125 Z " fill="#63868A" transform="translate(355.5,343.875)"/>
<path d="M0 0 C2.64 0 5.28 0 8 0 C8 0.33 8 0.66 8 1 C6.35 1.33 4.7 1.66 3 2 C3.2475 2.721875 3.495 3.44375 3.75 4.1875 C4 7 4 7 2.0625 9.8125 C1.381875 10.534375 0.70125 11.25625 0 12 C0 8.04 0 4.08 0 0 Z " fill="#4B252E" transform="translate(195,203)"/>
<path d="M0 0 C1.32 1.32 2.64 2.64 4 4 C4.33 2.68 4.66 1.36 5 0 C5.66 0 6.32 0 7 0 C7 2.31 7 4.62 7 7 C4.69 7 2.38 7 0 7 C0 4.69 0 2.38 0 0 Z " fill="#401B23" transform="translate(196,110)"/>
<path d="M0 0 C0 2.31 0 4.62 0 7 C-1.65 7 -3.3 7 -5 7 C-5 5.02 -5 3.04 -5 1 C-2 0 -2 0 0 0 Z " fill="#5B4360" transform="translate(187,55)"/>
<path d="M0 0 C1.98 0 3.96 0 6 0 C5.34 0.61875 4.68 1.2375 4 1.875 C1.20485938 6.24240721 1.64711756 9.95182061 2 15 C1.34 15 0.68 15 0 15 C0 10.05 0 5.1 0 0 Z " fill="#E3DFC2" transform="translate(211,133)"/>
<path d="M0 0 C1.65 0 3.3 0 5 0 C5 1.98 5 3.96 5 6 C3.35 6 1.7 6 0 6 C0 4.02 0 2.04 0 0 Z " fill="#976249" transform="translate(283,95)"/>
<path d="M0 0 C0.33 0 0.66 0 1 0 C1 2.31 1 4.62 1 7 C3.31 7 5.62 7 8 7 C8 7.33 8 7.66 8 8 C5.69 8 3.38 8 1 8 C1 10.64 1 13.28 1 16 C0.67 16 0.34 16 0 16 C0 13.36 0 10.72 0 8 C-2.31 8 -4.62 8 -7 8 C-7 7.67 -7 7.34 -7 7 C-4.69 7 -2.38 7 0 7 C0 4.69 0 2.38 0 0 Z " fill="#5F3E4C" transform="translate(234,86)"/>
<path d="M0 0 C0.33 0 0.66 0 1 0 C1.33 1.65 1.66 3.3 2 5 C3.98 5 5.96 5 8 5 C8 5.99 8 6.98 8 8 C5.36 8 2.72 8 0 8 C0 5.36 0 2.72 0 0 Z " fill="#462227" transform="translate(172,211)"/>
<path d="M0 0 C2.64 0 5.28 0 8 0 C8 2.31 8 4.62 8 7 C7.67 7 7.34 7 7 7 C7 5.35 7 3.7 7 2 C5.35 2.33 3.7 2.66 2 3 C1.67 4.65 1.34 6.3 1 8 C0.67 8 0.34 8 0 8 C0 5.36 0 2.72 0 0 Z " fill="#C97371" transform="translate(156,187)"/>
<path d="M0 0 C1.98 0 3.96 0 6 0 C6 1.32 6 2.64 6 4 C3.50907189 5.24546405 2.58919267 4.7767578 0 4 C0 2.68 0 1.36 0 0 Z " fill="#1D0D1B" transform="translate(149,407)"/>
<path d="M0 0 C0.66 0 1.32 0 2 0 C2 1.65 2 3.3 2 5 C4.97 5.495 4.97 5.495 8 6 C8 6.66 8 7.32 8 8 C5.36 8 2.72 8 0 8 C0 5.36 0 2.72 0 0 Z " fill="#0D0C11" transform="translate(187,258)"/>
<path d="M0 0 C2.31 0 4.62 0 7 0 C7 2.31 7 4.62 7 7 C4.69 7 2.38 7 0 7 C1.3125 5.5 1.3125 5.5 3 4 C3.99 4 4.98 4 6 4 C5.67 3.34 5.34 2.68 5 2 C2.47266765 1.34444881 2.47266765 1.34444881 0 1 C0 0.67 0 0.34 0 0 Z " fill="#341C2D" transform="translate(282,180)"/>
<path d="M0 0 C0.33 0 0.66 0 1 0 C1 1.98 1 3.96 1 6 C1.99 6 2.98 6 4 6 C4 5.01 4 4.02 4 3 C4.66 3 5.32 3 6 3 C6.33 4.65 6.66 6.3 7 8 C4.69 8 2.38 8 0 8 C0 5.36 0 2.72 0 0 Z " fill="#856248" transform="translate(148,203)"/>
<path d="M0 0 C1.98 0 3.96 0 6 0 C6 1.65 6 3.3 6 5 C4.02 5 2.04 5 0 5 C0 3.35 0 1.7 0 0 Z " fill="#996044" transform="translate(313,204)"/>
<path d="M0 0 C1.65 0 3.3 0 5 0 C5.33 0.66 5.66 1.32 6 2 C5.67 2.99 5.34 3.98 5 5 C3.35 5 1.7 5 0 5 C0 3.35 0 1.7 0 0 Z " fill="#220D19" transform="translate(189,150)"/>
<path d="M0 0 C2.31 0 4.62 0 7 0 C7 2.64 7 5.28 7 8 C6.34 8 5.68 8 5 8 C5 6.02 5 4.04 5 2 C3.35 2 1.7 2 0 2 C0 1.34 0 0.68 0 0 Z " fill="#8F6252" transform="translate(305,117)"/>
<path d="M0 0 C2.64 0 5.28 0 8 0 C5 2 5 2 2 2 C2 3.98 2 5.96 2 8 C1.34 8 0.68 8 0 8 C0 5.36 0 2.72 0 0 Z " fill="#3F7F8B" transform="translate(109,492)"/>
<path d="M0 0 C0.33 0 0.66 0 1 0 C1 2.31 1 4.62 1 7 C3.31 7 5.62 7 8 7 C8.33 7.66 8.66 8.32 9 9 C2.84765625 9.87890625 2.84765625 9.87890625 1 10 C0 9 0 9 -0.09765625 6.93359375 C-0.08605469 6.10988281 -0.07445312 5.28617188 -0.0625 4.4375 C-0.05347656 3.61121094 -0.04445313 2.78492188 -0.03515625 1.93359375 C-0.02355469 1.29550781 -0.01195312 0.65742188 0 0 Z " fill="#CFAE94" transform="translate(265,180)"/>
<path d="M0 0 C2.64 0 5.28 0 8 0 C8 2.64 8 5.28 8 8 C6.5 6.75 6.5 6.75 5 5 C5 3.68 5 2.36 5 1 C3.35 1 1.7 1 0 1 C0 0.67 0 0.34 0 0 Z " fill="#482529" transform="translate(289,164)"/>
<path d="M0 0 C0.66 0 1.32 0 2 0 C2 0.66 2 1.32 2 2 C2.99 1.67 3.98 1.34 5 1 C5 1.66 5 2.32 5 3 C3.68 3.33 2.36 3.66 1 4 C1 7.63 1 11.26 1 15 C0.67 15 0.34 15 0 15 C0 10.05 0 5.1 0 0 Z " fill="#84604B" transform="translate(226,297)"/>
<path d="M0 0 C1.32 0 2.64 0 4 0 C4 1.65 4 3.3 4 5 C2.35 5 0.7 5 -1 5 C-0.67 3.35 -0.34 1.7 0 0 Z " fill="#D1E5C8" transform="translate(213,197)"/>
<path d="M0 0 C2.31 0 4.62 0 7 0 C5.68 0.33 4.36 0.66 3 1 C3.33 1.99 3.66 2.98 4 4 C3.01 5.485 3.01 5.485 2 7 C1.34 7 0.68 7 0 7 C0 4.69 0 2.38 0 0 Z " fill="#230F20" transform="translate(305,109)"/>
<path d="M0 0 C2.64 0 5.28 0 8 0 C8 2.64 8 5.28 8 8 C7.67 8 7.34 8 7 8 C6.67 6.35 6.34 4.7 6 3 C3.03 2.505 3.03 2.505 0 2 C0 1.34 0 0.68 0 0 Z " fill="#253B48" transform="translate(242,453)"/>
<path d="M0 0 C2.64 0 5.28 0 8 0 C7.67 2.97 7.34 5.94 7 9 C6.67 9 6.34 9 6 9 C6 6.69 6 4.38 6 2 C4.02 2 2.04 2 0 2 C0 1.34 0 0.68 0 0 Z " fill="#2A212F" transform="translate(344,343)"/>
<path d="M0 0 C1.65 0 3.3 0 5 0 C5 1.65 5 3.3 5 5 C3.35 5 1.7 5 0 5 C0 3.35 0 1.7 0 0 Z " fill="#D3E4CA" transform="translate(267,181)"/>
<path d="M0 0 C2.475 0.495 2.475 0.495 5 1 C5 2.32 5 3.64 5 5 C3.35 4.67 1.7 4.34 0 4 C0 2.68 0 1.36 0 0 Z " fill="#D7E2CD" transform="translate(244,181)"/>
<path d="M0 0 C1.32 0.33 2.64 0.66 4 1 C4 2.65 4 4.3 4 6 C2.68 6 1.36 6 0 6 C0 4.02 0 2.04 0 0 Z " fill="#3F2039" transform="translate(246,399)"/>
<path d="M0 0 C2.475 0.495 2.475 0.495 5 1 C4.34 2.98 3.68 4.96 3 7 C2.01 7 1.02 7 0 7 C0 4.69 0 2.38 0 0 Z " fill="#220F1E" transform="translate(359,360)"/>
<path d="M0 0 C0.99 0 1.98 0 3 0 C3 2.31 3 4.62 3 7 C2.01 7 1.02 7 0 7 C0 4.69 0 2.38 0 0 Z " fill="#401E34" transform="translate(235,297)"/>
<path d="M0 0 C1.32 0.33 2.64 0.66 4 1 C4.33 2.32 4.66 3.64 5 5 C3.35 5 1.7 5 0 5 C0 3.35 0 1.7 0 0 Z " fill="#976144" transform="translate(188,204)"/>
<path d="M0 0 C0.99 0 1.98 0 3 0 C3 2.64 3 5.28 3 8 C1.35 8 -0.3 8 -2 8 C-1.01 7.67 -0.02 7.34 1 7 C0.67 4.69 0.34 2.38 0 0 Z " fill="#D1A18F" transform="translate(200,164)"/>
<path d="M0 0 C2.31 0 4.62 0 7 0 C6.67 0.66 6.34 1.32 6 2 C3.9375 2.625 3.9375 2.625 2 3 C1.67 4.65 1.34 6.3 1 8 C0.67 8 0.34 8 0 8 C0 5.36 0 2.72 0 0 Z " fill="#40404E" transform="translate(125,367)"/>
<path d="M0 0 C1.32 0 2.64 0 4 0 C4 1.32 4 2.64 4 4 C2.68 4.33 1.36 4.66 0 5 C-0.5625 3.0625 -0.5625 3.0625 -1 1 C-0.67 0.67 -0.34 0.34 0 0 Z " fill="#D46271" transform="translate(331,197)"/>
<path d="M0 0 C0.99 0.99 1.98 1.98 3 3 C2.67 3.99 2.34 4.98 2 6 C3.98 6 5.96 6 8 6 C8 6.33 8 6.66 8 7 C5.36 7 2.72 7 0 7 C0 4.69 0 2.38 0 0 Z " fill="#D0A38D" transform="translate(297,165)"/>
<path d="M0 0 C0.66 0 1.32 0 2 0 C2 2.31 2 4.62 2 7 C-0.31 7 -2.62 7 -5 7 C-4.0409375 6.6596875 -4.0409375 6.6596875 -3.0625 6.3125 C-0.72806339 5.14749104 -0.72806339 5.14749104 -0.25 2.375 C-0.1675 1.59125 -0.085 0.8075 0 0 Z " fill="#451D24" transform="translate(209,102)"/>
<path d="M0 0 C2 1 2 1 3.125 4.0625 C3.41375 5.031875 3.7025 6.00125 4 7 C2.68 7.33 1.36 7.66 0 8 C0 5.36 0 2.72 0 0 Z " fill="#130610" transform="translate(132,359)"/>
<path d="M0 0 C0.66 0 1.32 0 2 0 C3.125 4.75 3.125 4.75 2 7 C2.66 7.33 3.32 7.66 4 8 C2.68 8 1.36 8 0 8 C0 5.36 0 2.72 0 0 Z " fill="#090508" transform="translate(218,289)"/>
<path d="M0 0 C-0.33 1.32 -0.66 2.64 -1 4 C-2.98 3.34 -4.96 2.68 -7 2 C-7 3.65 -7 5.3 -7 7 C-7.33 7 -7.66 7 -8 7 C-8 5.02 -8 3.04 -8 1 C-2.25 0 -2.25 0 0 0 Z " fill="#BE9884" transform="translate(164,171)"/>
<path d="M0 0 C0.33 1.65 0.66 3.3 1 5 C-0.65 4.67 -2.3 4.34 -4 4 C-4 3.01 -4 2.02 -4 1 C-2 0 -2 0 0 0 Z " fill="#6D8487" transform="translate(223,305)"/>
<path d="M0 0 C2.9375 0.375 2.9375 0.375 6 1 C6.33 1.66 6.66 2.32 7 3 C4.36 3 1.72 3 -1 3 C-0.67 2.01 -0.34 1.02 0 0 Z " fill="#2C0F0F" transform="translate(227,294)"/>
<path d="M0 0 C0.99 0.33 1.98 0.66 3 1 C3 1.99 3 2.98 3 4 C0.36 4 -2.28 4 -5 4 C-4.0409375 3.8453125 -4.0409375 3.8453125 -3.0625 3.6875 C-2.381875 3.460625 -1.70125 3.23375 -1 3 C-0.67 2.01 -0.34 1.02 0 0 Z " fill="#432644" transform="translate(263,98)"/>
<path d="M0 0 C1.2065625 0.0309375 1.2065625 0.0309375 2.4375 0.0625 C1.4375 2.0625 1.4375 2.0625 -0.5 3 C-2.88221493 4.01595922 -2.88221493 4.01595922 -4.5625 7.0625 C-3.5234375 0.0859375 -3.5234375 0.0859375 0 0 Z " fill="#32293B" transform="translate(239.5625,475.9375)"/>
<path d="M0 0 C1.98 0 3.96 0 6 0 C6 2.64 6 5.28 6 8 C5.67 8 5.34 8 5 8 C4.9175 7.236875 4.835 6.47375 4.75 5.6875 C3.85384206 2.47626739 2.78388975 1.70625501 0 0 Z " fill="#512C30" transform="translate(221,172)"/>
<path d="M0 0 C2.31 0 4.62 0 7 0 C3.25 3 3.25 3 1 3 C0.67 3.66 0.34 4.32 0 5 C0 3.35 0 1.7 0 0 Z " fill="#2A222A" transform="translate(211,39)"/>
</svg>
